<svg width="861" height="811" viewBox="0 0 861 811" fill="none" xmlns="http://www.w3.org/2000/svg">
<g id="annette-painting">
<g id="undraw_making_art_759c 1" clip-path="url(#clip0)">
<path id="Vector" opacity="0.7" d="M267.835 29.6635C297.045 3.66347 342.905 -1.66653 384.635 0.40347C515.725 6.91347 634.055 70.2035 736.465 141.793C773.525 167.703 810.005 195.633 834.055 231.323C883.055 303.963 868.495 404.603 800.415 464.453C777.245 484.813 749.165 500.453 720.335 514.263C669.075 538.873 613.765 558.623 555.595 564.263C514.105 568.263 472.105 565.013 430.865 559.413C315.575 543.773 202.465 509.213 107.665 450.083C66.0751 424.153 26.8851 391.913 9.74506 349.963C-7.39494 308.013 3.57507 254.853 46.0351 230.023C63.5951 219.753 84.5951 215.113 105.145 210.763C135.405 204.353 166.145 198.033 193.455 184.993C221.655 171.533 255.045 145.503 249.455 115.713C243.465 83.7435 238.665 55.6635 267.835 29.6635Z" fill="url(#paint0_linear)"/>
<path id="Vector_2" d="M558.17 181.39L558.39 181.77C538.01 207.22 536.66 246.77 536.61 247.08L532.31 242.08C532.36 241.76 537.65 207.02 558.17 181.39Z" fill="#444053"/>
<path id="Vector_3" d="M567.87 243.64C567.87 243.64 556.87 220.54 566.66 205.51" stroke="#444053" stroke-miterlimit="10"/>
<path id="Vector_4" d="M577.4 180.25C577.4 180.25 563.2 182.79 561.21 178.13" stroke="#444053" stroke-miterlimit="10"/>
<path id="Vector_5" d="M558.95 163.11C558.95 163.11 566.12 172.61 567.95 170.48" stroke="#444053" stroke-miterlimit="10"/>
<path id="Vector_6" d="M545.84 171.07C545.84 171.07 545.84 192.32 540.06 193.83" stroke="#444053" stroke-miterlimit="10"/>
<path id="Vector_7" d="M498.55 198.6C498.55 198.6 521.55 200.6 532.12 188.71" stroke="#444053" stroke-miterlimit="10"/>
<path id="Vector_8" d="M484.77 175.9C484.77 175.9 501.03 181.55 515.02 167.16" stroke="#444053" stroke-miterlimit="10"/>
<path id="Vector_9" opacity="0.4" d="M424.48 810.99C632.139 810.99 800.48 778.307 800.48 737.99C800.48 697.673 632.139 664.99 424.48 664.99C216.821 664.99 48.48 697.673 48.48 737.99C48.48 778.307 216.821 810.99 424.48 810.99Z" fill="url(#paint1_linear)"/>
<path id="Vector_10" d="M447.06 435.03L446.95 438.92L440.19 677.44H428.83L434.39 438.92L434.5 434.43L447.06 435.03Z" fill="#504F60"/>
<path id="Vector_11" opacity="0.1" d="M447.06 435.03L446.95 438.92L440.19 677.44H428.83L434.39 438.92L434.5 434.43L447.06 435.03Z" fill="black"/>
<path id="Vector_12" d="M512.82 637.09L504.32 637.07L377.88 636.8L371.14 636.79L374.73 625.73H511.93L512.82 637.09Z" fill="#504F60"/>
<path id="Vector_13" opacity="0.1" d="M447.06 435.03L446.95 438.92H434.39L434.5 434.43L447.06 435.03Z" fill="black"/>
<path id="Vector_14" d="M451.84 429.2H430.77V437.13H451.84V429.2Z" fill="#504F60"/>
<path id="Vector_15" opacity="0.1" d="M379 625.73L377.88 636.8L371.14 636.79L374.73 625.73H379Z" fill="black"/>
<path id="Vector_16" d="M397.14 429.05L396.8 432.49L368.75 709.13L355.9 708.52L385.45 432.49L385.78 429.35L397.14 429.05Z" fill="#504F60"/>
<path id="Vector_17" opacity="0.1" d="M512.82 637.09L504.32 637.07L503.16 625.73H511.93L512.82 637.09Z" fill="black"/>
<path id="Vector_18" d="M526.27 708.52L513.41 709.13L485.37 432.49L485.02 429.05L496.38 429.35L496.71 432.49L526.27 708.52Z" fill="#504F60"/>
<path id="Vector_19" d="M580.97 156.3H297.61V428H580.97V156.3Z" fill="white"/>
<path id="Vector_20" d="M580.97 156.3H297.61V428H580.97V156.3Z" fill="white"/>
<path id="Vector_21" d="M444.81 65.44V131.04H433.76V65.44C433.728 64.6947 433.848 63.9506 434.111 63.2527C434.374 62.5547 434.776 61.9172 435.292 61.3786C435.809 60.84 436.428 60.4114 437.115 60.1186C437.801 59.8258 438.539 59.6749 439.285 59.6749C440.031 59.6749 440.769 59.8258 441.455 60.1186C442.142 60.4114 442.761 60.84 443.278 61.3786C443.794 61.9172 444.196 62.5547 444.459 63.2527C444.722 63.9506 444.842 64.6947 444.81 65.44Z" fill="#504F60"/>
<path id="Vector_22" opacity="0.1" d="M444.82 125.07H433.76V131.04H444.82V125.07Z" fill="black"/>
<path id="Vector_23" d="M449.15 129.55V151.22H429.46V129.55C429.46 129.197 429.53 128.847 429.665 128.521C429.8 128.194 429.998 127.898 430.248 127.648C430.498 127.398 430.794 127.2 431.121 127.065C431.447 126.93 431.797 126.86 432.15 126.86H446.46C447.173 126.863 447.855 127.147 448.359 127.651C448.863 128.155 449.147 128.837 449.15 129.55Z" fill="#504F60"/>
<path id="Vector_24" opacity="0.1" d="M439.29 144.79C441.599 144.79 443.47 142.919 443.47 140.61C443.47 138.301 441.599 136.43 439.29 136.43C436.981 136.43 435.11 138.301 435.11 140.61C435.11 142.919 436.981 144.79 439.29 144.79Z" fill="black"/>
<path id="Vector_25" d="M439.29 143.89C441.599 143.89 443.47 142.019 443.47 139.71C443.47 137.401 441.599 135.53 439.29 135.53C436.981 135.53 435.11 137.401 435.11 139.71C435.11 142.019 436.981 143.89 439.29 143.89Z" fill="#3F3D56"/>
<path id="Vector_26" opacity="0.1" d="M449.16 148.53H429.43V151.22H449.16V148.53Z" fill="black"/>
<path id="Vector_27" opacity="0.1" d="M457.22 152.12H421.35V158.1H457.22V152.12Z" fill="black"/>
<path id="Vector_28" d="M457.22 150.32H421.35V156.3H457.22V150.32Z" fill="#504F60"/>
<path id="Vector_29" opacity="0.1" d="M366.73 421H517.38C519.104 421 520.757 421.685 521.976 422.904C523.195 424.123 523.88 425.776 523.88 427.5V428.92H360.23V427.5C360.23 425.776 360.915 424.123 362.134 422.904C363.353 421.685 365.006 421 366.73 421Z" fill="black"/>
<path id="Vector_30" opacity="0.1" d="M385.78 429.35L397.14 429.05L396.8 432.49H385.45L385.78 429.35Z" fill="black"/>
<path id="Vector_31" opacity="0.1" d="M451.84 429.2H430.77V432.49H451.84V429.2Z" fill="black"/>
<path id="Vector_32" opacity="0.1" d="M496.71 432.49H485.37L485.02 429.05L496.38 429.35L496.71 432.49Z" fill="black"/>
<path id="Vector_33" d="M366.73 422.77H517.38C519.104 422.77 520.757 423.455 521.976 424.674C523.195 425.893 523.88 427.546 523.88 429.27V430.69H360.23V429.27C360.23 427.546 360.915 425.893 362.134 424.674C363.353 423.455 365.006 422.77 366.73 422.77Z" fill="#504F60"/>
<path id="Vector_34" opacity="0.05" d="M388 184.63C396.78 173.54 410.55 171.29 423.09 172.17C462.47 174.94 498.02 201.89 528.77 232.37C539.9 243.37 550.86 255.29 558.09 270.49C572.8 301.42 568.43 344.27 547.98 369.75C540.98 378.42 532.58 385.07 523.92 390.96C508.53 401.44 491.92 409.84 474.43 412.24C461.97 413.95 449.35 412.56 436.96 410.18C402.35 403.52 368.37 388.81 339.89 363.63C327.39 352.63 315.62 338.87 310.47 321.01C305.32 303.15 308.62 280.51 321.37 269.94C326.65 265.56 332.96 263.59 339.13 261.73C348.22 259.01 357.46 256.31 365.66 250.73C374.13 244.99 384.16 233.91 382.48 221.22C380.68 207.65 379.24 195.7 388 184.63Z" fill="#6C63FF"/>
<path id="Vector_35" d="M121.46 660.5C121.46 660.5 127.68 668.63 118.59 680.91C109.5 693.19 102.01 703.55 105.04 711.21C105.04 711.21 118.75 688.41 129.91 688.09C141.07 687.77 133.71 674.22 121.46 660.5Z" fill="#6C63FF"/>
<path id="Vector_36" opacity="0.1" d="M121.46 660.5C122.003 661.285 122.431 662.144 122.73 663.05C133.62 675.85 139.42 687.79 128.96 688.05C119.21 688.32 107.51 705.76 104.71 710.16C104.801 710.499 104.911 710.833 105.04 711.16C105.04 711.16 118.75 688.36 129.91 688.04C141.07 687.72 133.71 674.22 121.46 660.5Z" fill="black"/>
<path id="Vector_37" d="M132.99 670.88C132.99 673.74 132.67 676.06 132.27 676.06C131.87 676.06 131.56 673.74 131.56 670.88C131.56 668.02 131.96 669.36 132.35 669.36C132.74 669.36 132.99 668.01 132.99 670.88Z" fill="#FFD037"/>
<path id="Vector_38" d="M136.96 674.29C134.45 675.66 132.25 676.49 132.07 676.14C131.89 675.79 133.76 674.4 136.27 673.03C138.78 671.66 137.79 672.66 137.98 673.03C138.17 673.4 139.46 672.92 136.96 674.29Z" fill="#FFD037"/>
<path id="Vector_39" d="M88.59 660.5C88.59 660.5 82.37 668.63 91.46 680.91C100.55 693.19 108.04 703.55 105.01 711.21C105.01 711.21 91.3 688.41 80.14 688.09C68.98 687.77 76.31 674.22 88.59 660.5Z" fill="#6C63FF"/>
<path id="Vector_40" opacity="0.1" d="M88.59 660.5C88.0472 661.285 87.6195 662.144 87.32 663.05C76.43 675.85 70.63 687.79 81.09 688.05C90.84 688.32 102.54 705.76 105.34 710.16C105.249 710.499 105.139 710.833 105.01 711.16C105.01 711.16 91.3 688.36 80.14 688.04C68.98 687.72 76.31 674.22 88.59 660.5Z" fill="black"/>
<path id="Vector_41" d="M77.03 670.88C77.03 673.74 77.35 676.06 77.75 676.06C78.15 676.06 78.46 673.74 78.46 670.88C78.46 668.02 78.06 669.36 77.67 669.36C77.28 669.36 77.03 668.01 77.03 670.88Z" fill="#FFD037"/>
<path id="Vector_42" d="M73.06 674.29C75.57 675.66 77.76 676.49 77.95 676.14C78.14 675.79 76.26 674.4 73.75 673.03C71.24 671.66 72.23 672.66 72.04 673.03C71.85 673.4 70.55 672.92 73.06 674.29Z" fill="#FFD037"/>
<path id="Vector_43" d="M79.01 710.15C79.01 710.15 96.39 709.62 101.63 705.88C106.87 702.14 128.38 697.7 129.68 703.68C130.98 709.66 155.8 733.44 136.17 733.6C116.54 733.76 90.57 730.54 85.34 727.36C80.11 724.18 79.01 710.15 79.01 710.15Z" fill="#A8A8A8"/>
<path id="Vector_44" opacity="0.2" d="M136.52 731.5C116.9 731.66 90.92 728.44 85.69 725.26C81.69 722.83 80.12 714.12 79.59 710.11H79.01C79.01 710.11 80.11 724.11 85.34 727.32C90.57 730.53 116.55 733.72 136.17 733.56C141.84 733.56 143.8 731.5 143.69 728.51C142.9 730.36 140.74 731.5 136.52 731.5Z" fill="black"/>
<path id="Vector_45" d="M566 689.69C566 689.69 554.89 651.96 568.08 624.19C573.691 612.577 575.382 599.457 572.9 586.8C571.676 580.801 569.905 574.926 567.61 569.25" stroke="#535461" stroke-width="2" stroke-miterlimit="10"/>
<path id="Vector_46" d="M575.82 551.7C575.82 556.33 567.45 569.7 567.45 569.7C567.45 569.7 559.07 556.29 559.07 551.7C559.145 549.529 560.06 547.472 561.623 545.962C563.185 544.453 565.273 543.609 567.445 543.609C569.617 543.609 571.705 544.453 573.267 545.962C574.83 547.472 575.745 549.529 575.82 551.7Z" fill="#6C63FF"/>
<path id="Vector_47" d="M589.66 577.32C587.15 581.2 572.83 587.9 572.83 587.9C572.83 587.9 573.09 572.1 575.6 568.22C576.807 566.355 578.705 565.047 580.876 564.582C583.048 564.117 585.316 564.533 587.18 565.74C589.044 566.947 590.353 568.845 590.818 571.016C591.283 573.188 590.867 575.456 589.66 577.32Z" fill="#6C63FF"/>
<path id="Vector_48" d="M589.05 621.09C584.93 623.17 569.18 621.73 569.18 621.73C569.18 621.73 577.39 608.22 581.51 606.13C583.499 605.13 585.804 604.961 587.918 605.661C590.031 606.36 591.78 607.871 592.78 609.86C593.78 611.849 593.949 614.154 593.249 616.268C592.55 618.381 591.039 620.13 589.05 621.13V621.09Z" fill="#6C63FF"/>
<path id="Vector_49" d="M581.14 654.1C577.42 656.85 561.66 658.1 561.66 658.1C561.66 658.1 567.46 643.4 571.18 640.65C572.064 639.993 573.068 639.517 574.136 639.249C575.204 638.98 576.314 638.925 577.403 639.086C578.493 639.246 579.539 639.62 580.484 640.185C581.429 640.75 582.253 641.496 582.91 642.38C583.567 643.264 584.043 644.268 584.311 645.336C584.58 646.404 584.635 647.514 584.474 648.603C584.314 649.692 583.94 650.739 583.375 651.684C582.81 652.629 582.064 653.453 581.18 654.11L581.14 654.1Z" fill="#6C63FF"/>
<path id="Vector_50" d="M555.25 588.8C558.57 592.02 574.02 595.36 574.02 595.36C574.02 595.36 570.23 580.01 566.92 576.79C566.135 576.009 565.203 575.391 564.178 574.972C563.153 574.554 562.054 574.343 560.947 574.352C559.84 574.361 558.745 574.589 557.727 575.024C556.708 575.459 555.786 576.092 555.014 576.886C554.242 577.68 553.635 578.619 553.229 579.649C552.822 580.68 552.624 581.78 552.646 582.887C552.668 583.995 552.91 585.086 553.357 586.1C553.803 587.113 554.447 588.027 555.25 588.79V588.8Z" fill="#6C63FF"/>
<path id="Vector_51" d="M546.46 627.5C550.59 629.58 566.33 628.14 566.33 628.14C566.33 628.14 558.13 614.63 554 612.54C552.025 611.617 549.769 611.499 547.709 612.212C545.649 612.926 543.949 614.413 542.967 616.36C541.986 618.306 541.802 620.558 542.454 622.638C543.107 624.718 544.543 626.462 546.46 627.5Z" fill="#6C63FF"/>
<path id="Vector_52" d="M543.13 666.34C546.84 669.09 562.6 670.34 562.6 670.34C562.6 670.34 556.8 655.63 553.08 652.88C551.294 651.554 549.054 650.992 546.853 651.317C544.652 651.642 542.671 652.829 541.345 654.615C540.019 656.401 539.457 658.641 539.782 660.842C540.108 663.043 541.294 665.024 543.08 666.35L543.13 666.34Z" fill="#6C63FF"/>
<path id="Vector_53" d="M575.82 551.7C575.82 556.33 567.45 569.7 567.45 569.7C567.45 569.7 559.07 556.29 559.07 551.7C559.145 549.529 560.06 547.472 561.623 545.962C563.185 544.453 565.273 543.609 567.445 543.609C569.617 543.609 571.705 544.453 573.267 545.962C574.83 547.472 575.745 549.529 575.82 551.7Z" fill="#6C63FF"/>
<path id="Vector_54" d="M589.66 577.32C587.15 581.2 572.83 587.9 572.83 587.9C572.83 587.9 573.09 572.1 575.6 568.22C576.807 566.355 578.705 565.047 580.876 564.582C583.048 564.117 585.316 564.533 587.18 565.74C589.044 566.947 590.353 568.845 590.818 571.016C591.283 573.188 590.867 575.456 589.66 577.32Z" fill="#6C63FF"/>
<path id="Vector_55" d="M589.05 621.09C584.93 623.17 569.18 621.73 569.18 621.73C569.18 621.73 577.39 608.22 581.51 606.13C583.499 605.13 585.804 604.961 587.918 605.661C590.031 606.36 591.78 607.871 592.78 609.86C593.78 611.849 593.949 614.154 593.249 616.268C592.55 618.381 591.039 620.13 589.05 621.13V621.09Z" fill="#6C63FF"/>
<path id="Vector_56" d="M581.14 654.1C577.42 656.85 561.66 658.1 561.66 658.1C561.66 658.1 567.46 643.4 571.18 640.65C572.064 639.993 573.068 639.517 574.136 639.249C575.204 638.98 576.314 638.925 577.403 639.086C578.493 639.246 579.539 639.62 580.484 640.185C581.429 640.75 582.253 641.496 582.91 642.38C583.567 643.264 584.043 644.268 584.311 645.336C584.58 646.404 584.635 647.514 584.474 648.603C584.314 649.692 583.94 650.739 583.375 651.684C582.81 652.629 582.064 653.453 581.18 654.11L581.14 654.1Z" fill="#6C63FF"/>
<path id="Vector_57" d="M555.25 588.8C558.57 592.02 574.02 595.36 574.02 595.36C574.02 595.36 570.23 580.01 566.92 576.79C566.135 576.009 565.203 575.391 564.178 574.972C563.153 574.554 562.054 574.343 560.947 574.352C559.84 574.361 558.745 574.589 557.727 575.024C556.708 575.459 555.786 576.092 555.014 576.886C554.242 577.68 553.635 578.619 553.229 579.649C552.822 580.68 552.624 581.78 552.646 582.887C552.668 583.995 552.91 585.086 553.357 586.1C553.803 587.113 554.447 588.027 555.25 588.79V588.8Z" fill="#6C63FF"/>
<path id="Vector_58" d="M546.46 627.5C550.59 629.58 566.33 628.14 566.33 628.14C566.33 628.14 558.13 614.63 554 612.54C552.025 611.617 549.769 611.499 547.709 612.212C545.649 612.926 543.949 614.413 542.967 616.36C541.986 618.306 541.802 620.558 542.454 622.638C543.107 624.718 544.543 626.462 546.46 627.5Z" fill="#6C63FF"/>
<path id="Vector_59" d="M543.13 666.34C546.84 669.09 562.6 670.34 562.6 670.34C562.6 670.34 556.8 655.63 553.08 652.88C551.294 651.554 549.054 650.992 546.853 651.317C544.652 651.642 542.671 652.829 541.345 654.615C540.019 656.401 539.457 658.641 539.782 660.842C540.108 663.043 541.294 665.024 543.08 666.35L543.13 666.34Z" fill="#6C63FF"/>
<path id="Vector_60" d="M539.73 687.31C539.73 687.31 553.27 684.62 556.87 681.04C560.47 677.46 576.72 671.19 578.53 675.67C580.34 680.15 602.88 695.37 587.53 698.06C572.18 700.75 551.44 701.64 546.93 699.85C542.42 698.06 539.73 687.31 539.73 687.31Z" fill="#A8A8A8"/>
<path id="Vector_61" opacity="0.2" d="M587.55 696.39C572.21 699.08 551.46 699.98 546.95 698.19C543.52 696.82 541.13 690.27 540.18 687.19L539.73 687.28C539.73 687.28 542.44 698.03 546.95 699.82C551.46 701.61 572.21 700.72 587.55 698.03C591.97 697.25 593.24 695.43 592.76 693.13C592.38 694.66 590.84 695.82 587.55 696.39Z" fill="black"/>
<g id="painting" opacity="0.75">
<path id="Vector_62" opacity="0.75" d="M510.55 384.39C510.316 383.899 510.118 383.391 509.96 382.87C509.65 381.66 510.03 380.4 510.05 379.15C510.038 378.286 509.941 377.425 509.76 376.58C509.17 373.35 508.59 370.11 508 366.87C507.73 365.38 507.46 363.87 507.33 362.38C507.2 360.89 507.22 359.28 507.19 357.73C507.12 352.73 506.19 347.73 506.04 342.68C505.93 340.07 505.73 337.46 505.52 334.85C505.15 330.37 504.76 325.85 503.97 321.47C503.35 317.96 501.59 314.68 501.55 311.12C501.55 309.27 501.55 307.42 501.5 305.57C501.605 303.981 501.352 302.388 500.76 300.91C500.07 299.69 499.138 298.625 498.02 297.78C494.873 295.06 491.613 292.477 488.24 290.03C489.263 290.22 490.317 290.141 491.3 289.8C491.784 289.613 492.176 289.246 492.394 288.776C492.612 288.306 492.64 287.77 492.47 287.28C492.121 286.718 491.564 286.315 490.92 286.16C489.712 285.795 488.461 285.594 487.2 285.56C487.316 285.082 487.406 284.598 487.47 284.11C488.13 278.95 485.54 273.89 485.55 268.69C485.55 263.33 488.27 258.42 489.84 253.3C492.309 245.173 491.921 236.446 488.74 228.57C487.05 224.41 484.58 220.5 483.74 216.09C483.09 212.63 483.5 209.09 482.91 205.58C481.43 196.75 473.56 189.96 464.91 187.58C458.24 185.77 451.45 186.35 444.74 187.58C438.97 188.65 433.74 186.29 427.94 187.05C425.68 187.34 423.33 188.05 421.87 189.83C421.136 190.919 420.468 192.051 419.87 193.22C417.3 197.22 412.2 198.59 407.96 200.78C401.52 204.12 396.39 210.35 395.43 217.53C394.54 224.19 397.16 230.79 397.56 237.53C398.07 246.09 394.96 254.39 392.33 262.53C391.468 264.763 391.024 267.136 391.02 269.53C391.17 271.164 391.533 272.771 392.1 274.31C392.93 276.83 393.87 279.31 394.94 281.76C392.946 282.571 390.855 283.119 388.72 283.39C386.54 283.64 384.21 283.55 382.32 284.66C381.441 285.206 380.686 285.927 380.1 286.78C379.199 288.039 378.559 289.465 378.215 290.974C377.872 292.483 377.833 294.045 378.1 295.57C377.706 295.819 377.383 296.165 377.16 296.575C376.938 296.984 376.824 297.444 376.83 297.91C376.78 298.84 376.99 299.76 377.03 300.69C376.955 302.444 376.618 304.176 376.03 305.83C374.474 311.513 374.086 317.453 374.89 323.29C376.17 332.63 376.42 341.9 376.83 351.29C377.1 357.46 376.59 363.7 377.61 369.8C377.95 371.8 378.61 374 380.19 375.28C380.596 375.554 380.983 375.855 381.35 376.18C382.25 377.12 382.28 378.57 382.58 379.84C383.058 381.593 384.128 383.128 385.608 384.183C387.087 385.238 388.886 385.749 390.7 385.63C390.03 387.63 389.37 389.48 388.7 391.4H491.46C491.4 391.16 491.34 390.92 491.29 390.68C491.122 389.668 491.098 388.638 491.22 387.62C492.08 388.62 491.93 390.09 492.16 391.4H511.46C511.662 389.025 511.352 386.635 510.55 384.39Z" fill="url(#paint2_linear)"/>
<path id="Vector_63" opacity="0.75" d="M428.46 188.27C426.21 188.57 423.88 189.27 422.46 191.04C421.724 192.121 421.056 193.246 420.46 194.41C417.91 198.41 412.84 199.74 408.64 201.92C402.24 205.23 397.15 211.43 396.2 218.56C395.31 225.18 397.91 231.74 398.31 238.4C398.81 246.9 395.73 255.15 393.12 263.26C392.257 265.493 391.813 267.866 391.81 270.26C391.96 271.884 392.323 273.481 392.89 275.01C395.29 282.28 398.54 289.36 403.38 295.29C408.22 301.22 414.76 305.96 422.21 307.71C425.626 308.412 429.103 308.78 432.59 308.81C437.923 309.01 443.257 309.11 448.59 309.11C451.522 309.194 454.456 308.997 457.35 308.52C463.46 307.33 468.84 303.88 474.06 300.52C480.06 296.62 486.66 291.83 487.57 284.72C488.22 279.6 485.66 274.57 485.66 269.4C485.66 264.23 488.36 259.2 489.92 254.12C492.378 246.029 491.989 237.34 488.82 229.5C487.14 225.36 484.69 221.5 483.82 217.09C483.17 213.66 483.57 210.09 482.99 206.65C481.52 197.88 473.71 191.14 465.13 188.81C458.5 187.02 451.76 187.58 445.13 188.81C439.46 189.86 434.19 187.5 428.46 188.27Z" fill="#3F3D56"/>
<path id="Vector_64" opacity="0.75" d="M430.28 261.76C431.571 267.326 430.604 273.176 427.59 278.03C425.997 280.344 424.042 282.387 421.8 284.08C418.397 286.842 414.53 288.979 410.38 290.39C412.967 292.425 415.961 293.881 419.16 294.66C421.624 295.189 424.131 295.493 426.65 295.57C439.289 296.239 451.962 295.781 464.52 294.2C468.72 293.67 473.1 292.94 476.52 290.41C476.82 290.223 477.054 289.947 477.19 289.62C477.43 288.79 476.44 288.16 475.62 287.88C471.62 286.49 467.21 285.7 463.71 283.24C458.35 279.47 456.11 272.56 455.63 266.03C455.15 259.5 456.09 252.91 455.45 246.38C446.783 246.253 438.117 246.507 429.45 247.14C428.45 247.21 424.13 246.97 423.61 247.8C423.09 248.63 425.45 251.04 426.05 251.95C428.059 254.928 429.493 258.255 430.28 261.76Z" fill="#FBBEBE"/>
<path id="Vector_65" opacity="0.1" d="M442.27 261.95C458.601 261.95 471.84 248.711 471.84 232.38C471.84 216.049 458.601 202.81 442.27 202.81C425.939 202.81 412.7 216.049 412.7 232.38C412.7 248.711 425.939 261.95 442.27 261.95Z" fill="black"/>
<path id="Vector_66" opacity="0.75" d="M442.27 260.9C458.601 260.9 471.84 247.661 471.84 231.33C471.84 214.999 458.601 201.76 442.27 201.76C425.939 201.76 412.7 214.999 412.7 231.33C412.7 247.661 425.939 260.9 442.27 260.9Z" fill="#FBBEBE"/>
<path id="Vector_67" opacity="0.75" d="M483.79 340.2C481.37 350.1 479.85 360.35 480.87 370.5C481.55 377.22 483.87 384.5 484.03 391.38H410.71C410.71 387.68 410.71 383.85 410.71 380.03C410.71 379.32 410.71 378.62 410.71 377.92C410.71 377.01 410.71 376.1 410.71 375.19C410.71 372.42 410.71 369.68 410.71 367.02C410.71 362.23 410.71 357.42 410.2 352.65C409.266 344.152 407.298 335.801 404.34 327.78L403.71 326.02C403.71 325.95 403.71 325.89 403.63 325.83C403.42 325.23 403.19 324.64 402.97 324.04C399.4 314.56 395.32 304.72 397.28 294.86C397.991 291.337 399.445 288.007 401.546 285.091C403.646 282.175 406.344 279.74 409.46 277.95C411.374 276.8 413.54 276.134 415.77 276.01C419.58 275.95 423.01 278.19 426.19 280.31C427.7 281.31 429.19 282.31 430.78 283.31C434.441 285.682 438.394 287.571 442.54 288.93C448.45 290.72 455.14 290.79 460.54 287.81C461.597 287.211 462.601 286.522 463.54 285.75C465.364 284.194 467.02 282.451 468.48 280.55C469.92 283.35 473.04 284.55 475.63 286.3C479.222 288.927 481.948 292.565 483.46 296.75C484.951 300.914 485.958 305.236 486.46 309.63C487.168 313.925 487.456 318.279 487.32 322.63C486.94 328.63 485.2 334.4 483.79 340.2Z" fill="#3F3D56"/>
<path id="Vector_68" opacity="0.75" d="M439.72 391.38H389.55C390.22 389.46 390.87 387.59 391.55 385.64H391.46C389.658 385.76 387.869 385.252 386.4 384.201C384.93 383.151 383.87 381.624 383.4 379.88C383.1 378.62 383.07 377.19 382.17 376.25C381.812 375.926 381.431 375.629 381.03 375.36C379.41 374.09 378.8 371.94 378.47 369.91C377.47 363.85 377.95 357.66 377.69 351.52C377.28 342.16 377.03 332.94 375.76 323.66C374.962 317.863 375.347 311.965 376.89 306.32C377.478 304.677 377.815 302.954 377.89 301.21C377.89 300.29 377.64 299.37 377.69 298.45C377.683 297.988 377.795 297.531 378.016 297.125C378.237 296.718 378.558 296.376 378.95 296.13C378.687 294.613 378.729 293.06 379.072 291.559C379.416 290.059 380.054 288.642 380.95 287.39C381.537 286.545 382.289 285.828 383.16 285.28C385.04 284.18 387.35 284.28 389.51 284.02C399.61 282.88 407.61 274.02 417.72 273.02C420 272.868 422.289 272.922 424.56 273.18C428.28 273.49 429.64 278.18 430.5 281.84C430.62 282.32 430.72 282.84 430.82 283.28C432.72 292.28 432.37 301.68 432.37 310.93C432.37 313.053 432.66 315.165 433.23 317.21C434.76 322.79 434.92 328.63 435.23 334.41C435.882 347.918 437.238 361.383 439.29 374.75C439.73 377.252 440.04 379.776 440.22 382.31C440.354 385.342 440.187 388.381 439.72 391.38Z" fill="#F86D70"/>
<path id="Vector_69" opacity="0.75" d="M429.04 318.22C430.124 319.451 431.101 320.773 431.96 322.17C432.36 322.83 432.69 323.79 432.1 324.29C431.783 324.506 431.403 324.611 431.02 324.59L424.02 324.89C422.958 325.001 421.884 324.903 420.86 324.6C419.514 323.949 418.378 322.934 417.58 321.67L414.46 317.59C413.541 316.579 412.858 315.377 412.46 314.07C412.286 313.414 412.329 312.719 412.581 312.088C412.833 311.458 413.282 310.926 413.86 310.57C414.995 310.206 416.226 310.292 417.3 310.81C419.42 311.53 421.94 312.01 423.81 313.24C425.769 314.657 427.529 316.332 429.04 318.22Z" fill="#F86D70"/>
<path id="Vector_70" opacity="0.1" d="M429.04 318.22C430.124 319.451 431.101 320.773 431.96 322.17C432.36 322.83 432.69 323.79 432.1 324.29C431.783 324.506 431.403 324.611 431.02 324.59L424.02 324.89C422.958 325.001 421.884 324.903 420.86 324.6C419.514 323.949 418.378 322.934 417.58 321.67L414.46 317.59C413.541 316.579 412.858 315.377 412.46 314.07C412.286 313.414 412.329 312.719 412.581 312.088C412.833 311.458 413.282 310.926 413.86 310.57C414.995 310.206 416.226 310.292 417.3 310.81C419.42 311.53 421.94 312.01 423.81 313.24C425.769 314.657 427.529 316.332 429.04 318.22Z" fill="black"/>
<path id="Vector_71" opacity="0.1" d="M425.04 318.69C425.9 314.1 427.079 309.576 428.57 305.15C429.395 303.027 429.988 300.821 430.34 298.57C430.53 296.8 430.34 295.01 430.52 293.24C430.66 291.71 431.03 290.24 431.26 288.7C431.709 285.618 431.522 282.477 430.71 279.47C430.07 277.08 430.71 274.17 429.15 272.23C428.53 271.44 427.7 270.84 427.05 270.07C426.697 269.712 426.439 269.27 426.301 268.786C426.163 268.302 426.149 267.791 426.26 267.3C428.439 267.794 430.694 267.866 432.9 267.51C433.561 267.438 434.198 267.216 434.76 266.86C435.036 266.68 435.255 266.426 435.393 266.127C435.531 265.828 435.582 265.497 435.54 265.17C435.438 264.855 435.273 264.564 435.054 264.314C434.836 264.065 434.569 263.863 434.27 263.72C432.311 262.511 430.109 261.751 427.821 261.495C425.533 261.239 423.218 261.493 421.04 262.24C420.975 262.07 420.972 261.882 421.033 261.709C421.093 261.537 421.213 261.392 421.37 261.3C421.68 261.128 422.019 261.016 422.37 260.97C423.481 260.719 424.513 260.197 425.373 259.45C426.233 258.703 426.895 257.755 427.3 256.69C427.437 256.396 427.472 256.066 427.4 255.75C427.14 255.02 426.1 255.06 425.35 255.25L421.27 256.25C420.481 256.41 419.715 256.669 418.99 257.02C418.109 257.554 417.322 258.23 416.66 259.02C414.52 261.33 412.34 263.71 411.16 266.63C410.63 267.95 410.32 269.35 409.77 270.63C409.278 271.98 408.33 273.115 407.09 273.84C406.447 274.19 405.932 274.735 405.618 275.396C405.304 276.057 405.206 276.8 405.34 277.52C405.664 278.972 406.298 280.337 407.2 281.52C408.715 283.887 410.431 286.118 412.33 288.19C413.704 289.437 414.884 290.883 415.83 292.48C416.41 293.66 416.66 294.98 417.17 296.18C417.454 296.74 417.672 297.33 417.82 297.94C417.885 298.378 417.885 298.822 417.82 299.26C416.97 305.91 412.04 311.33 410.2 317.77C410.109 317.991 410.062 318.228 410.063 318.467C410.064 318.707 410.113 318.943 410.206 319.164C410.299 319.384 410.434 319.584 410.605 319.751C410.776 319.919 410.978 320.051 411.2 320.14C414.78 322.85 419.2 324.25 423.44 325.6C424.149 323.341 424.684 321.031 425.04 318.69Z" fill="black"/>
<path id="Vector_72" opacity="0.75" d="M424.46 318.39C425.32 313.8 426.499 309.276 427.99 304.85C428.819 302.728 429.413 300.522 429.76 298.27C429.95 296.5 429.76 294.71 429.94 292.94C430.08 291.41 430.45 289.94 430.68 288.4C431.129 285.318 430.942 282.177 430.13 279.17C429.49 276.78 430.13 273.87 428.57 271.93C427.95 271.14 427.12 270.54 426.47 269.77C426.117 269.412 425.859 268.97 425.721 268.486C425.583 268.002 425.569 267.491 425.68 267C427.859 267.494 430.114 267.566 432.32 267.21C432.981 267.138 433.618 266.916 434.18 266.56C434.455 266.379 434.675 266.125 434.814 265.827C434.954 265.528 435.008 265.197 434.97 264.87C434.864 264.555 434.696 264.265 434.477 264.016C434.257 263.767 433.989 263.564 433.69 263.42C431.731 262.211 429.529 261.451 427.241 261.195C424.953 260.939 422.637 261.193 420.46 261.94C420.395 261.77 420.392 261.582 420.452 261.409C420.513 261.237 420.633 261.092 420.79 261C421.1 260.828 421.439 260.716 421.79 260.67C422.899 260.418 423.929 259.895 424.788 259.148C425.646 258.401 426.306 257.454 426.71 256.39C426.846 256.1 426.881 255.772 426.81 255.46C426.55 254.72 425.51 254.76 424.81 254.95L420.74 255.95C419.947 256.108 419.177 256.367 418.45 256.72C417.569 257.254 416.781 257.93 416.12 258.72C413.98 261.03 411.8 263.41 410.62 266.33C410.09 267.65 409.78 269.05 409.23 270.33C408.738 271.68 407.79 272.815 406.55 273.54C405.91 273.893 405.396 274.438 405.082 275.098C404.768 275.758 404.669 276.501 404.8 277.22C405.124 278.672 405.758 280.037 406.66 281.22C408.178 283.584 409.894 285.816 411.79 287.89C413.164 289.137 414.344 290.583 415.29 292.18C415.87 293.36 416.12 294.68 416.63 295.89C416.916 296.445 417.134 297.033 417.28 297.64C417.345 298.078 417.345 298.522 417.28 298.96C416.43 305.61 411.5 311.03 409.66 317.47C409.569 317.691 409.522 317.928 409.523 318.167C409.524 318.407 409.573 318.643 409.666 318.864C409.759 319.084 409.894 319.284 410.065 319.451C410.236 319.619 410.438 319.751 410.66 319.84C414.24 322.55 418.66 323.95 422.9 325.3C423.596 323.04 424.117 320.73 424.46 318.39Z" fill="#FBBEBE"/>
<path id="Vector_73" opacity="0.75" d="M427.15 316.72C427.294 316.784 427.413 316.893 427.49 317.03C427.555 317.201 427.555 317.389 427.49 317.56C426.508 320.522 425.214 323.372 423.63 326.06C420.45 324.313 417.347 322.443 414.32 320.45C413.554 320.036 412.909 319.429 412.45 318.69C407.98 310.06 424.18 314.99 427.15 316.72Z" fill="#3F3D56"/>
<path id="Vector_74" opacity="0.1" d="M409.31 320.9C408.26 322.3 407.05 323.56 406.01 324.97C404.293 327.591 402.772 330.335 401.46 333.18C399.537 336.826 397.22 340.25 394.55 343.39C391.86 346.55 388.64 349.79 388.34 353.93C388.373 354.523 388.245 355.114 387.97 355.64C387.67 356.08 387.14 356.3 386.75 356.64C386.36 356.98 386.12 357.64 386.52 358.05C384.98 358.21 384.34 360.05 384.04 361.58L383.36 365.08C383.155 365.996 383.045 366.931 383.03 367.87C383.129 369.138 383.436 370.382 383.94 371.55C385.569 375.847 387.69 379.941 390.26 383.75C391.49 385.57 392.91 387.4 394.93 388.27C396.857 388.929 398.914 389.121 400.93 388.83C403.78 388.65 407.09 388.2 408.51 385.72C409.41 384.15 409.27 382.12 410.25 380.6C410.82 379.861 411.449 379.169 412.13 378.53C413.186 377.173 413.97 375.624 414.44 373.97C417.043 366.54 419.128 358.938 420.68 351.22C421.087 348.61 421.774 346.052 422.73 343.59C423.815 341.395 425.086 339.297 426.53 337.32C429.06 333.49 429.44 330.17 431.19 325.93C427.33 325.03 425.55 322.47 422.26 320.3C419.16 318.25 414.57 313.89 411.26 312.3C410.17 315.03 411.08 318.5 409.31 320.9Z" fill="black"/>
<path id="Vector_75" opacity="0.1" d="M406.95 318.8C405.95 320.2 404.69 321.47 403.66 322.88C401.94 325.495 400.419 328.236 399.11 331.08C397.189 334.73 394.872 338.158 392.2 341.3C389.5 344.46 386.29 347.69 385.99 351.84C386.019 352.429 385.891 353.016 385.62 353.54C385.248 353.917 384.835 354.253 384.39 354.54C384 354.9 383.77 355.54 384.16 355.94C382.62 356.11 381.98 357.94 381.69 359.48L381.01 362.98C380.796 363.891 380.686 364.824 380.68 365.76C380.774 367.032 381.082 368.28 381.59 369.45C383.218 373.746 385.335 377.839 387.9 381.65C389.13 383.47 390.56 385.3 392.58 386.17C394.507 386.829 396.564 387.021 398.58 386.73C401.42 386.55 404.74 386.09 406.15 383.62C407.05 382.04 406.91 380.02 407.89 378.49C408.469 377.761 409.097 377.073 409.77 376.43C410.829 375.073 411.617 373.525 412.09 371.87C414.688 364.439 416.77 356.838 418.32 349.12C418.712 346.509 419.383 343.948 420.32 341.48C421.409 339.29 422.68 337.196 424.12 335.22C426.66 331.39 426.51 329.12 428.26 324.87C424.4 323.98 423.14 320.37 419.85 318.2C416.75 316.15 412.17 311.79 408.85 310.2C407.82 312.94 408.73 316.42 406.95 318.8Z" fill="black"/>
<path id="Vector_76" opacity="0.75" d="M408.26 319.85C407.26 321.25 406 322.52 404.97 323.92C403.248 326.538 401.727 329.282 400.42 332.13C398.502 335.779 396.184 339.203 393.51 342.34C390.81 345.51 387.6 348.74 387.3 352.88C387.329 353.473 387.201 354.062 386.93 354.59C386.555 354.965 386.143 355.3 385.7 355.59C385.31 355.95 385.08 356.59 385.47 356.99C383.93 357.15 383.29 358.99 383 360.53L382.32 364.03C382.106 364.941 381.995 365.874 381.99 366.81C382.085 368.081 382.389 369.328 382.89 370.5C384.523 374.792 386.644 378.882 389.21 382.69C390.44 384.52 391.87 386.35 393.89 387.22C395.819 387.874 397.874 388.066 399.89 387.78C402.73 387.6 406.05 387.14 407.46 384.67C408.36 383.09 408.22 381.06 409.2 379.54C409.779 378.808 410.407 378.116 411.08 377.47C412.137 376.116 412.925 374.571 413.4 372.92C415.999 365.486 418.081 357.881 419.63 350.16C420.022 347.553 420.693 344.995 421.63 342.53C422.719 340.34 423.99 338.246 425.43 336.27C427.966 332.434 430.126 328.361 431.88 324.11C428.045 323.138 424.415 321.488 421.16 319.24C418.06 317.24 413.48 312.83 410.16 311.24C409.13 313.98 410.03 317.5 408.26 319.85Z" fill="#F86D70"/>
<path id="Vector_77" opacity="0.75" d="M418.19 325.02C419.344 325.02 420.28 324.084 420.28 322.93C420.28 321.776 419.344 320.84 418.19 320.84C417.036 320.84 416.1 321.776 416.1 322.93C416.1 324.084 417.036 325.02 418.19 325.02Z" fill="#3F3D56"/>
<path id="Vector_78" opacity="0.75" d="M411.65 335.23C412.804 335.23 413.74 334.294 413.74 333.14C413.74 331.986 412.804 331.05 411.65 331.05C410.496 331.05 409.56 331.986 409.56 333.14C409.56 334.294 410.496 335.23 411.65 335.23Z" fill="#3F3D56"/>
<path id="Vector_79" opacity="0.75" d="M404.85 345.7C406.004 345.7 406.94 344.764 406.94 343.61C406.94 342.456 406.004 341.52 404.85 341.52C403.696 341.52 402.76 342.456 402.76 343.61C402.76 344.764 403.696 345.7 404.85 345.7Z" fill="#3F3D56"/>
<path id="Vector_80" opacity="0.75" d="M511.37 391.38H492.23C492 390.08 492.15 388.61 491.3 387.61C491.183 388.625 491.207 389.651 491.37 390.66C491.42 390.9 491.48 391.14 491.54 391.38H467.2C467.128 388.313 467.42 385.248 468.07 382.25C468.883 377.867 469.347 373.426 469.46 368.97C469.58 363.46 469.17 357.97 469.14 352.46C469.119 347.009 469.47 341.563 470.19 336.16C470.85 331.16 471.83 326.16 471.02 321.16C470.11 315.63 469.33 310.03 468.63 304.47C468.518 303.24 468.283 302.024 467.93 300.84C467.642 300.012 467.308 299.201 466.93 298.41C465.108 294.391 464.011 290.081 463.69 285.68C463.55 284.02 461.2 282.52 461.23 280.84C464.43 280.19 470.14 279.39 473.23 280.5C476.32 281.61 478.6 284.34 481.7 285.37C484.8 286.4 488.08 285.65 491.09 286.66C491.731 286.808 492.288 287.204 492.64 287.76C492.806 288.249 492.778 288.782 492.56 289.25C492.342 289.718 491.951 290.083 491.47 290.27C490.507 290.607 489.473 290.686 488.47 290.5C491.803 292.933 495.037 295.5 498.17 298.2C499.279 299.041 500.204 300.099 500.89 301.31C501.478 302.779 501.73 304.361 501.63 305.94C501.63 307.78 501.63 309.61 501.68 311.45C501.68 314.99 503.46 318.25 504.08 321.73C504.86 326.13 505.25 330.58 505.61 335.03C505.82 337.62 506.02 340.21 506.13 342.81C506.33 347.81 507.2 352.81 507.28 357.76C507.28 359.3 507.28 360.85 507.42 362.38C507.565 363.88 507.785 365.372 508.08 366.85C508.66 370.06 509.24 373.28 509.83 376.49C510.007 377.329 510.101 378.183 510.11 379.04C509.921 380.264 509.89 381.508 510.02 382.74C510.178 383.257 510.376 383.762 510.61 384.25C511.375 386.544 511.634 388.976 511.37 391.38Z" fill="#F86D70"/>
<path id="Vector_81" opacity="0.75" d="M443.45 219.16C459.063 219.16 471.72 214.24 471.72 208.17C471.72 202.1 459.063 197.18 443.45 197.18C427.837 197.18 415.18 202.1 415.18 208.17C415.18 214.24 427.837 219.16 443.45 219.16Z" fill="#3F3D56"/>
<path id="Vector_82" opacity="0.75" d="M458.65 219.27C449.77 215.78 446.29 223.39 446.29 223.39C442.87 232.51 449.29 237.85 453.15 240.14C454.618 241.011 456.293 241.47 458 241.47C459.239 241.476 460.466 241.235 461.61 240.76C464.137 239.781 466.364 238.159 468.071 236.054C469.777 233.949 470.904 231.435 471.34 228.76C472.92 216.42 458.65 219.27 458.65 219.27ZM467.91 228.97C467.561 231.176 466.651 233.255 465.265 235.006C463.88 236.758 462.066 238.123 460 238.97C458.896 239.434 457.697 239.628 456.502 239.538C455.308 239.448 454.152 239.075 453.13 238.45C449.98 236.55 444.77 232.09 447.55 224.5C447.55 224.5 450.38 218.16 457.55 221.07C457.6 221.05 469.2 218.67 467.91 228.97Z" fill="#F86D70"/>
<path id="Vector_83" opacity="0.75" d="M457.6 221.05C457.6 221.05 469.2 218.67 467.91 228.97C467.562 231.176 466.651 233.255 465.265 235.006C463.88 236.758 462.066 238.123 460 238.97C459.072 239.36 458.076 239.561 457.07 239.56C455.679 239.561 454.315 239.177 453.13 238.45C449.98 236.55 444.77 232.09 447.55 224.5C447.55 224.5 450.38 218.14 457.6 221.05Z" fill="#3F3D56"/>
<path id="Vector_84" opacity="0.1" d="M457.6 221.05C457.6 221.05 469.2 218.67 467.91 228.97C467.562 231.176 466.651 233.255 465.265 235.006C463.88 236.758 462.066 238.123 460 238.97C459.072 239.36 458.076 239.561 457.07 239.56C455.679 239.561 454.315 239.177 453.13 238.45C449.98 236.55 444.77 232.09 447.55 224.5C447.55 224.5 450.38 218.14 457.6 221.05Z" fill="url(#paint3_radial)"/>
<path id="Vector_85" opacity="0.75" d="M412.58 228.78C413.016 231.455 414.143 233.969 415.849 236.074C417.556 238.179 419.783 239.801 422.31 240.78C423.454 241.255 424.681 241.496 425.92 241.49C427.627 241.49 429.302 241.031 430.77 240.16C434.65 237.87 441.05 232.53 437.63 223.41C437.63 223.41 434.15 215.8 425.27 219.29C425.27 219.27 411 216.42 412.58 228.78ZM426.32 221.05C433.54 218.14 436.32 224.48 436.32 224.48C439.1 232.07 433.89 236.48 430.74 238.43C429.718 239.055 428.562 239.428 427.368 239.518C426.173 239.609 424.974 239.414 423.87 238.95C421.804 238.103 419.99 236.738 418.605 234.986C417.219 233.235 416.309 231.156 415.96 228.95C414.72 218.67 426.32 221.05 426.32 221.05Z" fill="#F86D70"/>
<path id="Vector_86" opacity="0.75" d="M426.32 221.05C426.32 221.05 414.72 218.67 416.01 228.97C416.358 231.176 417.269 233.255 418.655 235.006C420.04 236.758 421.854 238.123 423.92 238.97C424.848 239.36 425.844 239.561 426.85 239.56C428.241 239.561 429.605 239.177 430.79 238.45C433.94 236.55 439.15 232.09 436.37 224.5C436.37 224.5 433.54 218.14 426.32 221.05Z" fill="#3F3D56"/>
<path id="Vector_87" opacity="0.1" d="M426.32 221.05C426.32 221.05 414.72 218.67 416.01 228.97C416.358 231.176 417.269 233.255 418.655 235.006C420.04 236.758 421.854 238.123 423.92 238.97C424.848 239.36 425.844 239.561 426.85 239.56C428.241 239.561 429.605 239.177 430.79 238.45C433.94 236.55 439.15 232.09 436.37 224.5C436.37 224.5 433.54 218.14 426.32 221.05Z" fill="url(#paint4_radial)"/>
</g>
<g id="person">
<path id="Vector_88" d="M250.996 94.028C247.756 95.438 244.396 97.408 243.116 100.708C242.316 102.768 242.456 105.058 242.286 107.258C241.848 112.514 239.613 117.458 235.956 121.258C233.336 123.958 230.076 125.978 227.526 128.728C222.886 133.728 220.996 141.528 224.016 147.648C224.956 149.568 226.326 151.258 227.336 153.148C229.286 156.768 229.836 160.968 230.116 165.078C230.625 172.259 230.437 179.473 229.556 186.618C228.986 191.188 228.146 195.868 229.216 200.348C230.131 203.543 231.571 206.565 233.476 209.288C238.376 216.988 244.066 224.418 251.636 229.528C259.446 234.798 268.866 237.318 278.256 238.058C287.646 238.798 297.096 237.878 306.446 236.748C313.446 235.908 321.626 234.158 324.616 227.748C326.276 224.158 325.846 219.888 327.406 216.258C330.216 209.708 338.316 207.258 342.846 201.818C347.566 196.128 347.766 187.948 346.606 180.648C345.446 173.348 343.146 166.098 343.686 158.718C344.546 146.868 352.686 135.308 349.106 123.958C347.216 117.868 342.286 113.278 337.426 109.138C328.806 101.788 319.636 94.818 309.106 90.638C299.921 86.8633 289.798 86.0011 280.106 88.168C270.286 90.418 260.606 89.868 250.996 94.028Z" fill="#68D5E4"/>
<g id="Group" opacity="0.08">
<path id="Vector_89" opacity="0.08" d="M230.286 169.658C230.411 165.887 230.341 162.112 230.076 158.348C229.796 154.248 229.246 150.048 227.296 146.418C226.296 144.528 224.916 142.848 223.976 140.928C223.481 139.913 223.111 138.842 222.876 137.738C222.125 141.081 222.512 144.58 223.976 147.678C224.916 149.598 226.286 151.288 227.296 153.178C229.246 156.798 229.796 160.998 230.076 165.108C230.226 166.618 230.286 168.138 230.286 169.658Z" fill="#AC8EE5"/>
<path id="Vector_90" opacity="0.08" d="M343.686 151.988C343.559 153.924 343.593 155.867 343.786 157.798C344.886 147.268 351.266 136.958 349.736 126.798C348.646 135.078 344.286 143.458 343.686 151.988Z" fill="#AC8EE5"/>
<path id="Vector_91" opacity="0.08" d="M342.846 195.088C338.316 200.578 330.216 202.978 327.406 209.518C325.846 213.158 326.276 217.428 324.616 221.018C321.616 227.428 313.476 229.178 306.446 230.018C297.096 231.148 287.656 232.078 278.256 231.328C268.856 230.578 259.446 228.068 251.636 222.798C244.066 217.688 238.376 210.258 233.476 202.548C231.572 199.828 230.132 196.81 229.216 193.618C229.083 193.071 228.979 192.516 228.906 191.958C228.538 194.759 228.643 197.602 229.216 200.368C230.131 203.563 231.571 206.585 233.476 209.308C238.376 217.008 244.066 224.438 251.636 229.548C259.446 234.818 268.866 237.338 278.256 238.078C287.646 238.818 297.096 237.898 306.446 236.768C313.446 235.928 321.626 234.178 324.616 227.768C326.276 224.178 325.846 219.908 327.406 216.278C330.216 209.728 338.316 207.278 342.846 201.838C346.846 197.038 347.586 190.468 347.036 184.158C346.766 188.139 345.306 191.947 342.846 195.088Z" fill="#AC8EE5"/>
</g>
<path id="Vector_92" d="M320.856 241.118C317.266 245.118 311.856 247.208 306.456 247.478C301.051 247.587 295.69 246.472 290.776 244.218C281.722 240.241 273.836 234.012 267.871 226.124C261.905 218.237 258.058 208.953 256.696 199.158C256.402 197.674 256.467 196.142 256.886 194.688C258.336 190.608 263.726 189.948 267.346 187.528C270.646 185.338 272.496 181.528 273.416 177.638C273.656 176.588 273.856 175.538 274.016 174.468C274.436 171.618 274.656 168.728 275.156 165.888C275.318 164.517 275.79 163.2 276.536 162.038C277.491 160.856 278.744 159.952 280.166 159.418C288.616 155.748 299.626 157.418 308.026 160.598C310.836 161.668 310.296 161.988 309.226 164.748C308.538 166.506 307.941 168.299 307.436 170.118C307.286 170.628 307.146 171.118 307.016 171.658C305.825 176.356 305.207 181.181 305.176 186.028C305.176 190.468 305.686 195.118 308.116 198.848C311.986 204.758 319.856 207.248 323.376 213.378C324.658 215.818 325.437 218.491 325.666 221.238C326.516 228.208 325.546 235.868 320.856 241.118Z" fill="#FBBEBE"/>
<path id="Vector_93" d="M230.346 686.718C229.597 689.5 229.26 692.378 229.346 695.258L229.066 710.258C228.866 721.078 228.696 732.108 231.886 742.448C232.859 746.063 234.598 749.425 236.986 752.308C238.189 753.738 239.68 754.898 241.362 755.713C243.044 756.528 244.878 756.979 246.746 757.038C248.293 756.978 249.824 756.705 251.296 756.228C253.976 755.448 256.776 754.228 258.226 751.848C260.156 748.668 259.086 744.628 258.316 740.988C256.606 732.888 256.666 724.538 256.736 716.258L256.906 696.028C256.848 693.278 257.022 690.529 257.426 687.808C257.816 685.638 258.496 683.508 258.666 681.318C258.897 679.617 258.495 677.891 257.536 676.468C256.57 675.359 255.267 674.596 253.826 674.298C251.256 673.638 248.556 673.808 245.926 673.408C244.747 673.256 243.6 672.918 242.526 672.408C241.886 672.098 240.526 670.668 239.866 670.678C238.566 670.678 237.716 674.248 236.996 675.478C234.786 679.188 231.706 682.498 230.346 686.718Z" fill="#FBBEBE"/>
<path id="Vector_94" d="M313.196 547.708C306.076 568.968 310.916 592.428 308.336 614.788C307.401 621.853 306.089 628.863 304.406 635.788L292.036 690.868C289.986 700.028 287.916 709.248 287.636 718.628C287.356 728.008 288.956 737.628 293.796 745.698C296.68 750.38 300.553 754.376 305.142 757.405C309.731 760.435 314.927 762.425 320.366 763.238C322.122 763.483 323.783 764.182 325.186 765.266C326.589 766.35 327.685 767.781 328.366 769.418C328.573 769.935 328.73 770.471 328.836 771.018C329.118 772.337 329.049 773.707 328.637 774.991C328.225 776.276 327.483 777.429 326.486 778.338C324.486 779.938 321.766 780.158 319.236 779.948C307.356 778.948 297.446 770.068 285.706 767.948C275.606 766.138 264.706 769.438 255.186 765.648C254.564 765.426 253.99 765.086 253.496 764.648C252.939 764.072 252.54 763.363 252.336 762.588C250.096 755.588 254.696 748.508 257.736 741.828C262.061 732.288 263.4 721.663 261.576 711.348C259.496 699.708 261.646 687.408 262.266 675.548C262.927 664.557 264.424 653.632 266.746 642.868C268.246 635.678 269.516 628.328 272.436 621.578C274.186 617.578 276.496 613.768 278.336 609.778C281.736 602.408 283.476 594.398 285.156 586.458C288.536 570.458 291.816 554.328 291.816 537.988C298.108 537.973 304.347 539.144 310.206 541.438C311.397 541.921 312.364 542.833 312.917 543.993C313.471 545.153 313.57 546.478 313.196 547.708Z" fill="#FBBEBE"/>
<path id="Vector_95" opacity="0.08" d="M313.196 547.708C306.076 568.968 310.916 592.428 308.336 614.788C307.401 621.853 306.089 628.863 304.406 635.788L292.036 690.868C289.986 700.028 287.916 709.248 287.636 718.628C287.356 728.008 288.956 737.628 293.796 745.698C296.68 750.38 300.553 754.376 305.142 757.405C309.731 760.435 314.927 762.425 320.366 763.238C322.122 763.483 323.783 764.182 325.186 765.266C326.589 766.35 327.685 767.781 328.366 769.418C328.573 769.935 328.73 770.471 328.836 771.018C329.118 772.337 329.049 773.707 328.637 774.991C328.225 776.276 327.483 777.429 326.486 778.338C324.486 779.938 321.766 780.158 319.236 779.948C307.356 778.948 297.446 770.068 285.706 767.948C275.606 766.138 264.706 769.438 255.186 765.648C254.564 765.426 253.99 765.086 253.496 764.648C252.939 764.072 252.54 763.363 252.336 762.588C250.096 755.588 254.696 748.508 257.736 741.828C262.061 732.288 263.4 721.663 261.576 711.348C259.496 699.708 261.646 687.408 262.266 675.548C262.927 664.557 264.424 653.632 266.746 642.868C268.246 635.678 269.516 628.328 272.436 621.578C274.186 617.578 276.496 613.768 278.336 609.778C281.736 602.408 283.476 594.398 285.156 586.458C288.536 570.458 291.816 554.328 291.816 537.988C298.108 537.973 304.347 539.144 310.206 541.438C311.397 541.921 312.364 542.833 312.917 543.993C313.471 545.153 313.57 546.478 313.196 547.708Z" fill="black"/>
<path id="Vector_96" d="M320.346 537.668C319.946 548.001 319.563 558.335 319.196 568.668C319.196 569.018 319.196 569.358 319.196 569.668C319.149 573.63 318.814 577.584 318.196 581.498C316.846 588.838 313.526 595.658 310.016 602.248C308.972 604.335 307.772 606.341 306.426 608.248C305.246 609.848 303.876 611.308 302.776 612.948C299.926 617.208 299.046 622.428 297.376 627.268C289.746 649.348 265.936 662.668 257.956 684.608C251.912 682.92 246.003 680.784 240.276 678.218C239.696 678.1 239.149 677.859 238.67 677.512C238.191 677.164 237.791 676.719 237.499 676.204C237.206 675.69 237.027 675.119 236.973 674.53C236.919 673.941 236.992 673.347 237.186 672.788C239.006 659.358 242.186 646.138 245.366 632.938C247.496 624.048 249.716 615.008 254.496 607.208C258.496 600.688 264.126 595.368 269.406 589.828C271.296 587.828 273.246 585.628 273.686 582.918C273.858 581.244 273.74 579.552 273.336 577.918C272.256 571.918 271.476 565.868 270.996 559.768C270.996 559.428 270.996 559.078 270.906 558.768C270.456 554.178 269.366 548.208 270.366 543.918C272.176 536.118 287.366 534.518 294.016 534.358C302.826 534.108 311.636 535.868 320.346 537.668Z" fill="#FBBEBE"/>
<path id="Vector_97" d="M338.396 330.308C348.486 334.598 360.046 333.368 370.756 330.958C381.466 328.548 392.066 325.048 403.036 324.958C406.106 324.958 409.966 325.868 410.496 328.898C410.776 330.478 409.946 332.028 409.146 333.428C407.676 336.018 406.096 338.718 403.566 340.278C401.566 341.488 399.266 341.888 397.046 342.518C392.896 343.698 389.046 345.758 385.046 347.338C378.256 350.018 371.046 351.338 363.816 352.598C360.463 353.34 357.028 353.652 353.596 353.528C351.306 353.289 349.043 352.837 346.836 352.178C340.336 350.418 333.909 348.418 327.556 346.178C326.296 345.728 324.896 345.178 324.396 343.898C324.166 343.126 324.114 342.312 324.246 341.518C324.498 338.303 324.214 335.069 323.406 331.948C322.996 330.388 319.786 324.818 320.866 323.688C323.356 321.058 335.876 329.238 338.396 330.308Z" fill="#FBBEBE"/>
<path id="Vector_98" opacity="0.08" d="M338.396 330.308C348.486 334.598 360.046 333.368 370.756 330.958C381.466 328.548 392.066 325.048 403.036 324.958C406.106 324.958 409.966 325.868 410.496 328.898C410.776 330.478 409.946 332.028 409.146 333.428C407.676 336.018 406.096 338.718 403.566 340.278C401.566 341.488 399.266 341.888 397.046 342.518C392.896 343.698 389.046 345.758 385.046 347.338C378.256 350.018 371.046 351.338 363.816 352.598C360.463 353.34 357.028 353.652 353.596 353.528C351.306 353.289 349.043 352.837 346.836 352.178C340.336 350.418 333.909 348.418 327.556 346.178C326.296 345.728 324.896 345.178 324.396 343.898C324.166 343.126 324.114 342.312 324.246 341.518C324.498 338.303 324.214 335.069 323.406 331.948C322.996 330.388 319.786 324.818 320.866 323.688C323.356 321.058 335.876 329.238 338.396 330.308Z" fill="black"/>
<path id="Vector_99" opacity="0.1" d="M309.226 164.748C308.538 166.506 307.941 168.299 307.436 170.118C302.765 173.768 297.199 176.096 291.321 176.862C285.442 177.627 279.466 176.8 274.016 174.468C274.436 171.618 274.656 168.728 275.156 165.888C275.318 164.517 275.79 163.2 276.536 162.038C277.491 160.856 278.744 159.952 280.166 159.418C288.616 155.748 299.626 157.418 308.026 160.598C310.836 161.668 310.286 161.988 309.226 164.748Z" fill="black"/>
<path id="Vector_100" d="M287.066 175.788C305.341 175.788 320.156 160.973 320.156 142.698C320.156 124.423 305.341 109.608 287.066 109.608C268.791 109.608 253.976 124.423 253.976 142.698C253.976 160.973 268.791 175.788 287.066 175.788Z" fill="#FBBEBE"/>
<path id="Vector_101" opacity="0.08" d="M320.346 537.668C319.946 548.001 319.563 558.335 319.196 568.668C313.886 568.968 308.606 567.418 303.506 565.898C292.886 562.758 281.816 559.668 270.846 558.748C270.396 554.158 269.306 548.188 270.306 543.898C272.116 536.098 287.306 534.498 293.956 534.338C302.826 534.108 311.636 535.868 320.346 537.668Z" fill="black"/>
<path id="Vector_102" d="M354.686 552.638C354.106 553.758 353.346 555.338 352.406 554.518C341.126 553.518 331.576 563.348 320.316 564.518C314.626 565.108 308.966 563.448 303.506 561.828C285.146 556.388 265.446 551.118 247.216 556.898C246.986 546.461 246.087 536.05 244.526 525.728C242.806 514.418 240.286 503.218 238.986 491.848C236.566 470.738 238.366 449.358 236.606 428.188C235.906 419.648 234.606 411.188 233.866 402.648C232.096 382.458 230.136 360.968 238.526 342.518C239.726 339.851 240.933 337.201 242.146 334.568C242.515 333.875 242.749 333.118 242.836 332.338C242.85 331.945 242.796 331.552 242.676 331.178C242.186 329.498 240.566 328.178 239.596 326.598C237.956 324.018 238.136 320.718 238.366 317.668C238.476 316.378 238.816 315.318 238.906 314.028C235.396 309.158 233.346 303.598 231.806 297.778C230.036 291.178 228.916 284.258 226.956 277.718C223.806 267.218 218.416 257.448 215.776 246.808C214.416 241.338 214.316 235.448 214.246 229.808C214.231 227.511 214.402 225.217 214.756 222.948C215.216 220.098 216.286 217.428 218.906 216.198C220.956 213.198 221.616 209.488 221.736 205.848C221.836 203.418 221.736 200.908 222.616 198.638C224.406 194.118 229.616 191.978 234.396 191.268C239.176 190.558 244.266 190.728 248.686 188.698C250.351 187.882 251.938 186.914 253.426 185.808C259.122 182.017 264.582 177.883 269.776 173.428C269.901 173.303 270.056 173.213 270.226 173.168C270.456 173.168 270.656 173.318 270.836 173.468C274.996 177.168 279.136 180.868 283.296 184.558C285.566 186.558 287.836 188.558 289.926 190.788C292.9 193.918 295.488 197.393 297.636 201.138C298.649 202.838 299.557 204.598 300.356 206.408C301.61 209.202 302.63 212.095 303.406 215.058C303.826 216.628 304.166 218.208 304.406 219.798C304.596 220.948 304.756 222.108 304.866 223.288C304.919 223.675 304.959 224.065 304.986 224.458C305.683 224.315 306.34 224.025 306.916 223.608C307.53 223.172 308.006 222.568 308.286 221.868C308.541 221.224 308.718 220.553 308.816 219.868C308.938 219 309.005 218.125 309.016 217.248C309.016 216.248 309.086 215.158 309.086 214.118C309.092 212.296 308.921 210.477 308.576 208.688C307.906 205.408 306.456 202.338 305.576 199.108C304.696 195.878 304.416 192.248 306.056 189.318C306.676 188.208 307.826 187.128 309.056 187.388C309.519 187.548 309.94 187.811 310.287 188.157C310.633 188.504 310.896 188.925 311.056 189.388C311.628 190.71 311.914 192.138 311.896 193.578C311.896 194.278 311.896 194.848 312.536 195.198C312.686 198.478 315.216 201.198 317.956 202.968C320.696 204.738 323.816 206.028 326.266 208.218C329.386 210.978 331.106 214.918 333.266 218.478C334.55 220.343 335.602 222.358 336.396 224.478C336.881 226.51 337.063 228.603 336.936 230.688C336.809 243.601 336.669 256.508 336.516 269.408C336.286 274.841 336.554 280.284 337.316 285.668C337.826 288.668 338.656 291.598 338.716 294.668C338.926 303.128 333.016 310.238 328.916 317.668C325.916 323.038 327.026 329.828 329.656 335.398C332.286 340.968 336.286 345.728 339.356 351.048C350.226 369.888 348.446 393.048 347.806 414.838C346.827 448.694 349.431 482.559 355.576 515.868C357.836 528.158 360.456 541.538 354.686 552.638Z" fill="#2C2525"/>
<path id="Vector_103" opacity="0.08" d="M304.436 219.868C303.336 219.868 302.256 219.978 301.166 220.098C301.166 221.098 301.166 222.098 301.166 223.098C302.386 223.098 303.636 223.208 304.866 223.358C305.546 223.438 306.236 223.528 306.916 223.678C309.071 224.048 311.119 224.884 312.916 226.128C316.276 228.518 318.256 233.258 316.346 236.898L315.096 237.418C315.603 238.771 315.656 240.252 315.246 241.638C314.656 242.948 312.706 243.708 311.746 242.638C310.666 241.408 311.636 238.938 310.186 238.178C309.716 237.995 309.194 237.996 308.725 238.182C308.256 238.367 307.874 238.723 307.656 239.178C307.271 240.129 307.177 241.173 307.386 242.178C308.386 250.088 312.166 257.558 312.306 265.538C312.356 268.108 312.406 271.148 310.606 272.968C307.159 276.488 303.699 280.011 300.226 283.538C293.766 290.118 287.296 296.708 280.476 302.908C269.919 312.525 258.543 321.201 246.476 328.838C245.206 329.648 243.926 330.428 242.646 331.218C242.156 329.538 240.536 328.218 239.566 326.638C237.926 324.058 238.106 320.758 238.336 317.708C238.446 316.418 238.786 315.358 238.876 314.068C235.366 309.198 233.316 303.638 231.776 297.818C232.236 297.818 232.676 297.818 233.126 297.818C237.946 297.748 242.566 296.008 247.056 294.288C251.096 292.857 255.041 291.171 258.866 289.238C264.623 286.008 269.991 282.129 274.866 277.678C277.936 275.018 281.606 272.478 285.656 272.238C288.076 269.748 291.816 268.348 293.066 265.108C293.598 263.289 293.656 261.365 293.236 259.518C292.569 255.131 291.63 250.789 290.426 246.518C289.426 243.168 289.696 239.868 289.066 236.438C288.222 232.668 287.833 228.811 287.906 224.948C288.346 217.718 291.996 211.148 295.556 204.848C296.266 203.638 296.956 202.408 297.636 201.178C298.206 200.178 298.786 199.178 299.356 198.178C300.036 198.313 300.65 198.674 301.098 199.202C301.547 199.731 301.803 200.395 301.826 201.088C301.832 202.474 301.517 203.843 300.906 205.088C300.716 205.548 300.546 206.008 300.356 206.468C298.736 210.538 297.096 214.608 295.476 218.688C298.014 217.277 300.667 216.083 303.406 215.118C304.559 214.752 305.739 214.481 306.936 214.308C307.655 214.209 308.38 214.166 309.106 214.178C312.536 214.178 315.996 215.388 318.106 218.068C318.906 219.068 319.446 220.618 318.596 221.578C315.414 220.683 312.145 220.13 308.846 219.928C307.376 219.808 305.906 219.778 304.436 219.868Z" fill="black"/>
<path id="Vector_104" d="M351.216 322.998L336.356 374.318L420.096 345.958L430.896 301.388L351.216 322.998ZM387.676 322.998C384.676 322.998 382.276 321.788 382.276 320.298C382.276 318.808 384.696 317.598 387.676 317.598C390.656 317.598 393.086 318.808 393.086 320.298C393.086 321.788 390.666 322.998 387.676 322.998Z" fill="#464353"/>
<path id="Vector_105" opacity="0.9" d="M284.826 140.368C307.47 140.368 325.826 132.533 325.826 122.868C325.826 113.203 307.47 105.368 284.826 105.368C262.182 105.368 243.826 113.203 243.826 122.868C243.826 132.533 262.182 140.368 284.826 140.368Z" fill="#57D7E9"/>
<path id="Vector_106" opacity="0.9" d="M363.366 334.478C365.978 334.478 368.096 333.874 368.096 333.128C368.096 332.382 365.978 331.778 363.366 331.778C360.754 331.778 358.636 332.382 358.636 333.128C358.636 333.874 360.754 334.478 363.366 334.478Z" fill="#6C63FF"/>
<path id="Vector_107" opacity="0.9" d="M357.966 341.228C360.578 341.228 362.696 340.624 362.696 339.878C362.696 339.132 360.578 338.528 357.966 338.528C355.354 338.528 353.236 339.132 353.236 339.878C353.236 340.624 355.354 341.228 357.966 341.228Z" fill="#FBBEBE"/>
<path id="Vector_108" opacity="0.9" d="M393.086 331.768C395.698 331.768 397.816 331.164 397.816 330.418C397.816 329.672 395.698 329.068 393.086 329.068C390.474 329.068 388.356 329.672 388.356 330.418C388.356 331.164 390.474 331.768 393.086 331.768Z" fill="#FBBEBE"/>
<path id="Vector_109" opacity="0.9" d="M362.016 341.228C364.628 341.228 366.746 340.624 366.746 339.878C366.746 339.132 364.628 338.528 362.016 338.528C359.404 338.528 357.286 339.132 357.286 339.878C357.286 340.624 359.404 341.228 362.016 341.228Z" fill="#FBBEBE"/>
<path id="Vector_110" opacity="0.9" d="M353.916 339.878C356.528 339.878 358.646 339.274 358.646 338.528C358.646 337.782 356.528 337.178 353.916 337.178C351.304 337.178 349.186 337.782 349.186 338.528C349.186 339.274 351.304 339.878 353.916 339.878Z" fill="#FBBEBE"/>
<path id="Vector_111" opacity="0.9" d="M353.916 343.928C356.528 343.928 358.646 343.324 358.646 342.578C358.646 341.832 356.528 341.228 353.916 341.228C351.304 341.228 349.186 341.832 349.186 342.578C349.186 343.324 351.304 343.928 353.916 343.928Z" fill="#FBBEBE"/>
<path id="Vector_112" opacity="0.9" d="M364.716 338.528C367.328 338.528 369.446 337.924 369.446 337.178C369.446 336.432 367.328 335.828 364.716 335.828C362.104 335.828 359.986 336.432 359.986 337.178C359.986 337.924 362.104 338.528 364.716 338.528Z" fill="#FBBEBE"/>
<path id="Vector_113" opacity="0.9" d="M356.616 335.828C359.228 335.828 361.346 335.224 361.346 334.478C361.346 333.732 359.228 333.128 356.616 333.128C354.004 333.128 351.886 333.732 351.886 334.478C351.886 335.224 354.004 335.828 356.616 335.828Z" fill="#FBBEBE"/>
<path id="Vector_114" opacity="0.9" d="M366.076 339.878C368.688 339.878 370.806 339.274 370.806 338.528C370.806 337.782 368.688 337.178 366.076 337.178C363.464 337.178 361.346 337.782 361.346 338.528C361.346 339.274 363.464 339.878 366.076 339.878Z" fill="#6C63FF"/>
<path id="Vector_115" opacity="0.9" d="M368.776 333.118C371.388 333.118 373.506 332.514 373.506 331.768C373.506 331.022 371.388 330.418 368.776 330.418C366.164 330.418 364.046 331.022 364.046 331.768C364.046 332.514 366.164 333.118 368.776 333.118Z" fill="#6C63FF"/>
<path id="Vector_116" opacity="0.9" d="M368.776 335.828C371.388 335.828 373.506 335.224 373.506 334.478C373.506 333.732 371.388 333.128 368.776 333.128C366.164 333.128 364.046 333.732 364.046 334.478C364.046 335.224 366.164 335.828 368.776 335.828Z" fill="#6C63FF"/>
<path id="Vector_117" opacity="0.9" d="M370.126 339.878C372.738 339.878 374.856 339.274 374.856 338.528C374.856 337.782 372.738 337.178 370.126 337.178C367.514 337.178 365.396 337.782 365.396 338.528C365.396 339.274 367.514 339.878 370.126 339.878Z" fill="#6C63FF"/>
<path id="Vector_118" opacity="0.9" d="M383.626 334.478C386.238 334.478 388.356 333.874 388.356 333.128C388.356 332.382 386.238 331.778 383.626 331.778C381.014 331.778 378.896 332.382 378.896 333.128C378.896 333.874 381.014 334.478 383.626 334.478Z" fill="#6C63FF"/>
<path id="Vector_119" opacity="0.9" d="M389.026 333.118C391.638 333.118 393.756 332.514 393.756 331.768C393.756 331.022 391.638 330.418 389.026 330.418C386.414 330.418 384.296 331.022 384.296 331.768C384.296 332.514 386.414 333.118 389.026 333.118Z" fill="#6C63FF"/>
<path id="Vector_120" opacity="0.9" d="M389.026 335.828C391.638 335.828 393.756 335.224 393.756 334.478C393.756 333.732 391.638 333.128 389.026 333.128C386.414 333.128 384.296 333.732 384.296 334.478C384.296 335.224 386.414 335.828 389.026 335.828Z" fill="#6C63FF"/>
<path id="Vector_121" opacity="0.9" d="M382.276 339.878C384.888 339.878 387.006 339.274 387.006 338.528C387.006 337.782 384.888 337.178 382.276 337.178C379.664 337.178 377.546 337.782 377.546 338.528C377.546 339.274 379.664 339.878 382.276 339.878Z" fill="#6C63FF"/>
<path id="Vector_122" opacity="0.9" d="M383.626 339.878C386.238 339.878 388.356 339.274 388.356 338.528C388.356 337.782 386.238 337.178 383.626 337.178C381.014 337.178 378.896 337.782 378.896 338.528C378.896 339.274 381.014 339.878 383.626 339.878Z" fill="#6C63FF"/>
<path id="Vector_123" opacity="0.9" d="M382.276 339.878C384.888 339.878 387.006 339.274 387.006 338.528C387.006 337.782 384.888 337.178 382.276 337.178C379.664 337.178 377.546 337.782 377.546 338.528C377.546 339.274 379.664 339.878 382.276 339.878Z" fill="#6C63FF"/>
<path id="Vector_124" opacity="0.9" d="M378.226 339.878C380.838 339.878 382.956 339.274 382.956 338.528C382.956 337.782 380.838 337.178 378.226 337.178C375.614 337.178 373.496 337.782 373.496 338.528C373.496 339.274 375.614 339.878 378.226 339.878Z" fill="#6C63FF"/>
<path id="Vector_125" opacity="0.9" d="M372.826 334.478C375.438 334.478 377.556 333.874 377.556 333.128C377.556 332.382 375.438 331.778 372.826 331.778C370.214 331.778 368.096 332.382 368.096 333.128C368.096 333.874 370.214 334.478 372.826 334.478Z" fill="#6C63FF"/>
<path id="Vector_126" opacity="0.9" d="M374.176 337.178C376.788 337.178 378.906 336.574 378.906 335.828C378.906 335.082 376.788 334.478 374.176 334.478C371.564 334.478 369.446 335.082 369.446 335.828C369.446 336.574 371.564 337.178 374.176 337.178Z" fill="#6C63FF"/>
<path id="Vector_127" opacity="0.9" d="M378.226 333.118C380.838 333.118 382.956 332.514 382.956 331.768C382.956 331.022 380.838 330.418 378.226 330.418C375.614 330.418 373.496 331.022 373.496 331.768C373.496 332.514 375.614 333.118 378.226 333.118Z" fill="#3F3D56"/>
<path id="Vector_128" opacity="0.9" d="M378.226 335.828C380.838 335.828 382.956 335.224 382.956 334.478C382.956 333.732 380.838 333.128 378.226 333.128C375.614 333.128 373.496 333.732 373.496 334.478C373.496 335.224 375.614 335.828 378.226 335.828Z" fill="#6C63FF"/>
<path id="Vector_129" d="M376.876 337.178C379.488 337.178 381.606 336.574 381.606 335.828C381.606 335.082 379.488 334.478 376.876 334.478C374.264 334.478 372.146 335.082 372.146 335.828C372.146 336.574 374.264 337.178 376.876 337.178Z" fill="#F86D70"/>
<path id="Vector_130" opacity="0.9" d="M382.276 337.178C384.888 337.178 387.006 336.574 387.006 335.828C387.006 335.082 384.888 334.478 382.276 334.478C379.664 334.478 377.546 335.082 377.546 335.828C377.546 336.574 379.664 337.178 382.276 337.178Z" fill="#6C63FF"/>
<path id="Vector_131" opacity="0.9" d="M384.976 342.578C387.588 342.578 389.706 341.974 389.706 341.228C389.706 340.482 387.588 339.878 384.976 339.878C382.364 339.878 380.246 340.482 380.246 341.228C380.246 341.974 382.364 342.578 384.976 342.578Z" fill="#6C63FF"/>
<path id="Vector_132" opacity="0.9" d="M387.676 335.828C390.288 335.828 392.406 335.224 392.406 334.478C392.406 333.732 390.288 333.128 387.676 333.128C385.064 333.128 382.946 333.732 382.946 334.478C382.946 335.224 385.064 335.828 387.676 335.828Z" fill="#6C63FF"/>
<path id="Vector_133" opacity="0.9" d="M387.676 338.528C390.288 338.528 392.406 337.924 392.406 337.178C392.406 336.432 390.288 335.828 387.676 335.828C385.064 335.828 382.946 336.432 382.946 337.178C382.946 337.924 385.064 338.528 387.676 338.528Z" fill="#6C63FF"/>
<path id="Vector_134" opacity="0.9" d="M389.026 342.578C391.638 342.578 393.756 341.974 393.756 341.228C393.756 340.482 391.638 339.878 389.026 339.878C386.414 339.878 384.296 340.482 384.296 341.228C384.296 341.974 386.414 342.578 389.026 342.578Z" fill="#6C63FF"/>
<path id="Vector_135" opacity="0.9" d="M402.536 337.178C405.148 337.178 407.266 336.574 407.266 335.828C407.266 335.082 405.148 334.478 402.536 334.478C399.924 334.478 397.806 335.082 397.806 335.828C397.806 336.574 399.924 337.178 402.536 337.178Z" fill="#6C63FF"/>
<path id="Vector_136" opacity="0.9" d="M407.936 335.828C410.548 335.828 412.666 335.224 412.666 334.478C412.666 333.732 410.548 333.128 407.936 333.128C405.324 333.128 403.206 333.732 403.206 334.478C403.206 335.224 405.324 335.828 407.936 335.828Z" fill="#6C63FF"/>
<path id="Vector_137" opacity="0.9" d="M407.936 338.528C410.548 338.528 412.666 337.924 412.666 337.178C412.666 336.432 410.548 335.828 407.936 335.828C405.324 335.828 403.206 336.432 403.206 337.178C403.206 337.924 405.324 338.528 407.936 338.528Z" fill="#A1616A"/>
<path id="Vector_138" opacity="0.9" d="M401.186 342.578C403.798 342.578 405.916 341.974 405.916 341.228C405.916 340.482 403.798 339.878 401.186 339.878C398.574 339.878 396.456 340.482 396.456 341.228C396.456 341.974 398.574 342.578 401.186 342.578Z" fill="#6C63FF"/>
<path id="Vector_139" opacity="0.9" d="M402.536 342.578C405.148 342.578 407.266 341.974 407.266 341.228C407.266 340.482 405.148 339.878 402.536 339.878C399.924 339.878 397.806 340.482 397.806 341.228C397.806 341.974 399.924 342.578 402.536 342.578Z" fill="#6C63FF"/>
<path id="Vector_140" opacity="0.9" d="M401.186 342.578C403.798 342.578 405.916 341.974 405.916 341.228C405.916 340.482 403.798 339.878 401.186 339.878C398.574 339.878 396.456 340.482 396.456 341.228C396.456 341.974 398.574 342.578 401.186 342.578Z" fill="#6C63FF"/>
<path id="Vector_141" d="M397.136 342.578C399.748 342.578 401.866 341.974 401.866 341.228C401.866 340.482 399.748 339.878 397.136 339.878C394.524 339.878 392.406 340.482 392.406 341.228C392.406 341.974 394.524 342.578 397.136 342.578Z" fill="#F86D70"/>
<path id="Vector_142" opacity="0.9" d="M391.736 337.178C394.348 337.178 396.466 336.574 396.466 335.828C396.466 335.082 394.348 334.478 391.736 334.478C389.124 334.478 387.006 335.082 387.006 335.828C387.006 336.574 389.124 337.178 391.736 337.178Z" fill="#6C63FF"/>
<path id="Vector_143" opacity="0.9" d="M393.086 339.878C395.698 339.878 397.816 339.274 397.816 338.528C397.816 337.782 395.698 337.178 393.086 337.178C390.474 337.178 388.356 337.782 388.356 338.528C388.356 339.274 390.474 339.878 393.086 339.878Z" fill="#6C63FF"/>
<path id="Vector_144" opacity="0.9" d="M397.136 335.828C399.748 335.828 401.866 335.224 401.866 334.478C401.866 333.732 399.748 333.128 397.136 333.128C394.524 333.128 392.406 333.732 392.406 334.478C392.406 335.224 394.524 335.828 397.136 335.828Z" fill="#A1616A"/>
<path id="Vector_145" d="M397.136 338.528C399.748 338.528 401.866 337.924 401.866 337.178C401.866 336.432 399.748 335.828 397.136 335.828C394.524 335.828 392.406 336.432 392.406 337.178C392.406 337.924 394.524 338.528 397.136 338.528Z" fill="#F86D70"/>
<path id="Vector_146" d="M395.786 339.878C398.398 339.878 400.516 339.274 400.516 338.528C400.516 337.782 398.398 337.178 395.786 337.178C393.174 337.178 391.056 337.782 391.056 338.528C391.056 339.274 393.174 339.878 395.786 339.878Z" fill="#F86D70"/>
<path id="Vector_147" opacity="0.9" d="M349.863 349.441C352.43 348.96 354.4 347.975 354.262 347.242C354.125 346.509 351.932 346.306 349.365 346.788C346.797 347.27 344.827 348.254 344.965 348.987C345.102 349.72 347.295 349.923 349.863 349.441Z" fill="#6C63FF"/>
<path id="Vector_148" opacity="0.9" d="M353.507 354.256C356.075 353.774 358.045 352.789 357.907 352.056C357.77 351.324 355.577 351.12 353.009 351.602C350.442 352.084 348.472 353.069 348.609 353.801C348.747 354.534 350.94 354.738 353.507 354.256Z" fill="#6C63FF"/>
<path id="Vector_149" opacity="0.9" d="M354.918 347.128C357.485 346.646 359.455 345.661 359.318 344.929C359.18 344.196 356.987 343.992 354.42 344.474C351.852 344.956 349.883 345.941 350.02 346.674C350.158 347.406 352.35 347.61 354.918 347.128Z" fill="#6C63FF"/>
<path id="Vector_150" opacity="0.9" d="M352.252 350.698C354.812 350.228 356.778 349.254 356.644 348.523C356.51 347.793 354.326 347.582 351.766 348.052C349.206 348.522 347.239 349.496 347.373 350.226C347.508 350.957 349.692 351.168 352.252 350.698Z" fill="#6C63FF"/>
<path id="Vector_151" opacity="0.9" d="M357.493 353.514C360.06 353.032 362.03 352.048 361.892 351.315C361.755 350.582 359.562 350.379 356.994 350.861C354.427 351.342 352.457 352.327 352.595 353.06C352.732 353.793 354.925 353.996 357.493 353.514Z" fill="#6C63FF"/>
<path id="Vector_152" opacity="0.9" d="M369.771 345.703C372.339 345.221 374.308 344.236 374.171 343.504C374.033 342.771 371.841 342.567 369.273 343.049C366.706 343.531 364.736 344.516 364.873 345.249C365.011 345.981 367.204 346.185 369.771 345.703Z" fill="#6C63FF"/>
<path id="Vector_153" opacity="0.9" d="M374.836 343.389C377.404 342.907 379.374 341.923 379.236 341.19C379.099 340.457 376.906 340.254 374.338 340.736C371.771 341.218 369.801 342.202 369.938 342.935C370.076 343.668 372.269 343.871 374.836 343.389Z" fill="#6C63FF"/>
<path id="Vector_154" opacity="0.9" d="M375.328 346.041C377.896 345.56 379.866 344.575 379.728 343.842C379.591 343.109 377.398 342.906 374.83 343.388C372.263 343.87 370.293 344.854 370.431 345.587C370.568 346.32 372.761 346.523 375.328 346.041Z" fill="#6C63FF"/>
<path id="Vector_155" opacity="0.9" d="M369.442 351.268C372.01 350.787 373.98 349.802 373.842 349.069C373.705 348.336 371.512 348.133 368.944 348.615C366.377 349.097 364.407 350.081 364.545 350.814C364.682 351.547 366.875 351.75 369.442 351.268Z" fill="#6C63FF"/>
<path id="Vector_156" opacity="0.9" d="M370.764 351.019C373.331 350.537 375.301 349.553 375.163 348.82C375.026 348.087 372.833 347.884 370.266 348.366C367.698 348.847 365.728 349.832 365.866 350.565C366.003 351.298 368.196 351.501 370.764 351.019Z" fill="#6C63FF"/>
<path id="Vector_157" opacity="0.9" d="M369.442 351.268C372.01 350.787 373.98 349.802 373.842 349.069C373.705 348.336 371.512 348.133 368.944 348.615C366.377 349.097 364.407 350.081 364.545 350.814C364.682 351.547 366.875 351.75 369.442 351.268Z" fill="#6C63FF"/>
<path id="Vector_158" opacity="0.9" d="M365.459 352.01C368.027 351.528 369.996 350.543 369.859 349.81C369.721 349.078 367.528 348.874 364.961 349.356C362.394 349.838 360.424 350.823 360.561 351.555C360.699 352.288 362.892 352.492 365.459 352.01Z" fill="#6C63FF"/>
<path id="Vector_159" opacity="0.9" d="M359.152 347.708C361.72 347.226 363.69 346.241 363.552 345.508C363.415 344.776 361.222 344.572 358.654 345.054C356.087 345.536 354.117 346.521 354.254 347.253C354.392 347.986 356.585 348.19 359.152 347.708Z" fill="#3F3D56"/>
<path id="Vector_160" opacity="0.9" d="M360.984 350.099C363.551 349.617 365.521 348.632 365.383 347.9C365.246 347.167 363.053 346.963 360.486 347.445C357.918 347.927 355.948 348.912 356.086 349.645C356.223 350.377 358.416 350.581 360.984 350.099Z" fill="#6C63FF"/>
<path id="Vector_161" opacity="0.9" d="M364.216 345.374C366.783 344.892 368.753 343.908 368.615 343.175C368.478 342.442 366.285 342.239 363.718 342.721C361.15 343.202 359.18 344.187 359.318 344.92C359.455 345.653 361.648 345.856 364.216 345.374Z" fill="#3F3D56"/>
<path id="Vector_162" opacity="0.9" d="M364.708 348.036C367.275 347.555 369.245 346.57 369.108 345.837C368.97 345.104 366.777 344.901 364.21 345.383C361.642 345.865 359.672 346.849 359.81 347.582C359.947 348.315 362.14 348.518 364.708 348.036Z" fill="#6C63FF"/>
<path id="Vector_163" opacity="0.9" d="M363.638 349.618C366.205 349.137 368.175 348.152 368.038 347.419C367.9 346.686 365.707 346.483 363.14 346.965C360.572 347.447 358.602 348.431 358.74 349.164C358.877 349.897 361.07 350.1 363.638 349.618Z" fill="#3F3D56"/>
<path id="Vector_164" opacity="0.9" d="M368.942 348.616C371.51 348.134 373.479 347.15 373.342 346.417C373.204 345.684 371.012 345.481 368.444 345.962C365.877 346.444 363.907 347.429 364.044 348.162C364.182 348.895 366.375 349.098 368.942 348.616Z" fill="#6C63FF"/>
<path id="Vector_165" opacity="0.9" d="M372.597 353.42C375.164 352.938 377.134 351.954 376.997 351.221C376.859 350.488 374.666 350.285 372.099 350.767C369.531 351.248 367.561 352.233 367.699 352.966C367.836 353.699 370.029 353.902 372.597 353.42Z" fill="#6C63FF"/>
<path id="Vector_166" opacity="0.9" d="M374.006 346.283C376.573 345.801 378.543 344.816 378.405 344.083C378.268 343.351 376.075 343.147 373.507 343.629C370.94 344.111 368.97 345.096 369.108 345.828C369.245 346.561 371.438 346.765 374.006 346.283Z" fill="#6C63FF"/>
<path id="Vector_167" opacity="0.9" d="M374.498 348.945C377.065 348.463 379.035 347.478 378.897 346.745C378.76 346.013 376.567 345.809 374 346.291C371.432 346.773 369.462 347.758 369.6 348.491C369.737 349.223 371.93 349.427 374.498 348.945Z" fill="#6C63FF"/>
<path id="Vector_168" opacity="0.9" d="M376.57 352.679C379.138 352.197 381.107 351.212 380.97 350.48C380.832 349.747 378.64 349.543 376.072 350.025C373.505 350.507 371.535 351.492 371.672 352.225C371.81 352.957 374.003 353.161 376.57 352.679Z" fill="#6C63FF"/>
<path id="Vector_169" opacity="0.9" d="M388.851 344.878C391.418 344.396 393.388 343.411 393.25 342.678C393.113 341.945 390.92 341.742 388.352 342.224C385.785 342.706 383.815 343.691 383.953 344.423C384.09 345.156 386.283 345.36 388.851 344.878Z" fill="#6C63FF"/>
<path id="Vector_170" opacity="0.9" d="M393.916 342.554C396.483 342.072 398.453 341.087 398.316 340.355C398.178 339.622 395.985 339.418 393.418 339.9C390.85 340.382 388.88 341.367 389.018 342.1C389.155 342.832 391.348 343.036 393.916 342.554Z" fill="#6C63FF"/>
<path id="Vector_171" opacity="0.9" d="M394.416 345.206C396.984 344.724 398.953 343.74 398.816 343.007C398.678 342.274 396.485 342.071 393.918 342.553C391.351 343.035 389.381 344.019 389.518 344.752C389.656 345.485 391.849 345.688 394.416 345.206Z" fill="#A1616A"/>
<path id="Vector_172" opacity="0.9" d="M388.522 350.433C391.089 349.951 393.059 348.966 392.922 348.234C392.784 347.501 390.591 347.298 388.024 347.779C385.456 348.261 383.486 349.246 383.624 349.979C383.762 350.712 385.954 350.915 388.522 350.433Z" fill="#6C63FF"/>
<path id="Vector_173" opacity="0.9" d="M389.853 350.182C392.42 349.7 394.39 348.715 394.253 347.983C394.115 347.25 391.922 347.046 389.355 347.528C386.787 348.01 384.818 348.995 384.955 349.728C385.093 350.46 387.285 350.664 389.853 350.182Z" fill="#6C63FF"/>
<path id="Vector_174" opacity="0.9" d="M388.522 350.433C391.089 349.951 393.059 348.966 392.922 348.234C392.784 347.501 390.591 347.298 388.024 347.779C385.456 348.261 383.486 349.246 383.624 349.979C383.762 350.712 385.954 350.915 388.522 350.433Z" fill="#6C63FF"/>
<path id="Vector_175" opacity="0.9" d="M384.538 351.184C387.106 350.703 389.076 349.718 388.938 348.985C388.801 348.252 386.608 348.049 384.04 348.531C381.473 349.013 379.503 349.997 379.641 350.73C379.778 351.463 381.971 351.666 384.538 351.184Z" fill="#6C63FF"/>
<path id="Vector_176" opacity="0.9" d="M375.012 347.9C377.572 347.43 379.538 346.456 379.404 345.726C379.27 344.995 377.086 344.784 374.526 345.254C371.966 345.724 369.999 346.698 370.133 347.429C370.268 348.159 372.452 348.37 375.012 347.9Z" fill="#A1616A"/>
<path id="Vector_177" opacity="0.9" d="M380.063 349.274C382.631 348.792 384.6 347.807 384.463 347.074C384.325 346.341 382.132 346.138 379.565 346.62C376.998 347.102 375.028 348.086 375.165 348.819C375.303 349.552 377.496 349.755 380.063 349.274Z" fill="#6C63FF"/>
<path id="Vector_178" opacity="0.9" d="M383.795 347.191C386.363 346.709 388.333 345.725 388.195 344.992C388.058 344.259 385.865 344.056 383.297 344.538C380.73 345.019 378.76 346.004 378.898 346.737C379.035 347.47 381.228 347.673 383.795 347.191Z" fill="#6C63FF"/>
<path id="Vector_179" opacity="0.9" d="M382.715 348.773C385.283 348.291 387.253 347.307 387.115 346.574C386.978 345.841 384.785 345.638 382.217 346.12C379.65 346.602 377.68 347.586 377.817 348.319C377.955 349.052 380.148 349.255 382.715 348.773Z" fill="#6C63FF"/>
<path id="Vector_180" opacity="0.9" d="M383.295 344.549C385.863 344.067 387.832 343.082 387.695 342.35C387.557 341.617 385.365 341.413 382.797 341.895C380.23 342.377 378.26 343.362 378.397 344.095C378.535 344.827 380.728 345.031 383.295 344.549Z" fill="#3F3D56"/>
<path id="Vector_181" d="M211.916 248.118C211.9 250.02 211.61 251.909 211.056 253.728C210.666 254.678 210.056 255.538 209.616 256.468C207.666 260.468 208.526 265.158 208.256 269.588C208.033 272.098 207.626 274.588 207.036 277.038C204.846 287.238 202.656 297.448 200.036 307.568C199.176 310.958 198.306 314.688 199.846 317.818C200.246 318.628 200.786 319.358 201.116 320.198C202.036 322.498 201.186 325.198 201.986 327.528C202.411 328.698 203.212 329.694 204.263 330.362C205.314 331.029 206.556 331.33 207.796 331.218C208.356 321.648 212.846 312.708 218.316 304.828C220.916 301.088 223.826 297.438 227.676 295.008C229.566 293.818 231.676 292.908 233.196 291.258C234.719 289.366 235.676 287.081 235.956 284.668C238.596 269.888 232.266 255.028 224.956 241.898C223.436 239.168 220.216 233.098 217.006 235.388C213.796 237.678 212.286 244.438 211.916 248.118Z" fill="#2C2525"/>
<path id="Vector_182" opacity="0.1" d="M290.446 134.598C272.546 134.598 257.726 128.158 255.076 119.748C254.797 120.621 254.655 121.532 254.656 122.448C254.656 132.138 270.656 139.998 290.446 139.998C310.236 139.998 326.226 132.138 326.226 122.448C326.227 121.532 326.085 120.621 325.806 119.748C323.156 128.158 308.336 134.598 290.446 134.598Z" fill="black"/>
<path id="Vector_183" opacity="0.1" d="M209.286 320.198C208.946 319.358 208.406 318.628 208.006 317.818C206.466 314.688 207.336 310.958 208.206 307.568C210.776 297.448 212.966 287.238 215.206 277.038C215.797 274.589 216.202 272.098 216.416 269.588C216.686 265.158 215.836 260.448 217.776 256.468C218.236 255.538 218.826 254.678 219.216 253.728C219.775 251.91 220.065 250.02 220.076 248.118C220.387 244.808 221.277 241.579 222.706 238.578C222.486 235.658 222.446 232.718 222.406 229.838C222.389 227.541 222.563 225.246 222.926 222.978C223.376 220.128 224.446 217.458 227.066 216.228C229.066 213.228 229.786 209.518 229.906 205.878C229.996 203.448 229.906 200.938 230.786 198.668C232.566 194.148 237.786 192.008 242.556 191.298C247.326 190.588 252.426 190.758 256.846 188.728C258.511 187.912 260.098 186.944 261.586 185.838C265.896 182.838 270.216 179.838 274.296 176.528L270.896 173.528C270.716 173.378 270.516 173.198 270.286 173.228C270.116 173.273 269.961 173.363 269.836 173.488C264.623 177.944 259.143 182.079 253.426 185.868C251.938 186.974 250.351 187.942 248.686 188.758C244.266 190.758 239.206 190.608 234.396 191.328C229.586 192.048 224.396 194.178 222.616 198.698C221.716 200.968 221.836 203.478 221.736 205.908C221.616 209.548 220.956 213.268 218.906 216.258C216.286 217.488 215.216 220.158 214.756 223.008C214.415 225.278 214.258 227.572 214.286 229.868C214.286 232.748 214.366 235.688 214.586 238.608C213.153 241.608 212.262 244.838 211.956 248.148C211.94 250.05 211.65 251.939 211.096 253.758C210.706 254.708 210.096 255.568 209.656 256.498C207.706 260.498 208.566 265.188 208.296 269.618C208.073 272.128 207.666 274.618 207.076 277.068C204.886 287.268 202.696 297.478 200.076 307.598C199.216 310.988 198.346 314.718 199.886 317.848C200.286 318.658 200.826 319.388 201.156 320.228C202.076 322.528 201.226 325.228 202.026 327.558C202.451 328.728 203.252 329.725 204.303 330.392C205.354 331.059 206.596 331.36 207.836 331.248C208.043 328.039 208.647 324.868 209.636 321.808C209.592 321.258 209.474 320.717 209.286 320.198Z" fill="black"/>
<path id="Vector_184" opacity="0.1" d="M307.016 203.468C307.526 204.468 308.016 205.468 308.456 206.468C309.714 209.261 310.734 212.154 311.506 215.118C311.926 216.688 312.266 218.268 312.506 219.858C312.696 221.008 312.856 222.168 312.966 223.348C313.013 223.735 313.053 224.125 313.086 224.518C313.782 224.375 314.44 224.085 315.016 223.668C315.635 223.223 316.111 222.608 316.386 221.898C316.633 221.253 316.807 220.582 316.906 219.898C317.031 219.03 317.102 218.155 317.116 217.278C317.116 216.278 317.176 215.188 317.176 214.148C317.182 212.326 317.011 210.507 316.666 208.718C316.006 205.438 314.546 202.368 313.666 199.138C313.596 198.908 313.546 198.658 313.486 198.418C312.951 197.452 312.637 196.38 312.566 195.278C311.946 194.928 311.906 194.358 311.926 193.658C311.944 192.218 311.658 190.79 311.086 189.468C310.926 189.005 310.663 188.584 310.317 188.237C309.97 187.891 309.549 187.628 309.086 187.468C307.836 187.208 306.686 188.288 306.086 189.398C304.446 192.328 304.716 195.968 305.606 199.188C305.986 200.608 306.506 202.038 307.016 203.468Z" fill="black"/>
<path id="Vector_185" opacity="0.1" d="M252.626 525.748C250.916 514.438 248.386 503.238 247.086 491.868C244.676 470.758 246.466 449.378 244.716 428.208C244.006 419.668 242.716 411.208 241.976 402.668C240.206 382.478 238.246 360.988 246.626 342.538C247.836 339.878 249.036 337.228 250.246 334.588C250.615 333.895 250.849 333.138 250.936 332.358C250.955 331.965 250.901 331.571 250.776 331.198C250.286 329.518 248.666 328.198 247.696 326.618C246.066 324.038 246.236 320.738 246.466 317.688C246.576 316.398 246.916 315.338 247.006 314.048C243.496 309.178 241.446 303.618 239.906 297.798C239.506 296.298 239.136 294.798 238.786 293.268C237.786 293.868 236.786 294.398 235.786 295.008C234.373 295.914 233.062 296.97 231.876 298.158C233.216 303.839 235.589 309.225 238.876 314.048C238.786 315.338 238.446 316.398 238.336 317.688C238.106 320.738 237.926 324.038 239.566 326.618C240.566 328.188 242.156 329.518 242.646 331.198C242.766 331.572 242.82 331.965 242.806 332.358C242.719 333.138 242.485 333.895 242.116 334.588C240.903 337.255 239.696 339.905 238.496 342.538C230.106 360.988 232.066 382.478 233.836 402.668C234.596 411.198 235.836 419.668 236.576 428.208C238.336 449.378 236.576 470.758 238.956 491.868C240.256 503.238 242.776 514.438 244.496 525.748C246.057 536.07 246.956 546.481 247.186 556.918C249.801 556.1 252.476 555.488 255.186 555.088C254.928 545.265 254.073 535.467 252.626 525.748Z" fill="black"/>
<path id="Vector_186" opacity="0.1" d="M311.606 561.868C297.606 557.728 282.896 553.708 268.606 554.558C280.306 555.218 292.166 558.558 303.506 561.868C308.966 563.488 314.626 565.148 320.316 564.558C320.786 564.558 321.256 564.418 321.726 564.348C318.298 563.761 314.917 562.933 311.606 561.868Z" fill="black"/>
<path id="Vector_187" d="M387.006 323.398C388.497 323.398 389.706 321.947 389.706 320.158C389.706 318.369 388.497 316.918 387.006 316.918C385.515 316.918 384.306 318.369 384.306 320.158C384.306 321.947 385.515 323.398 387.006 323.398Z" fill="#FBBEBE"/>
<path id="Vector_188" d="M218.016 304.208C220.686 300.378 223.686 296.648 227.646 294.208C228.386 293.748 229.146 293.328 229.896 292.898C226.826 292.748 223.736 292.318 220.826 293.218C215.536 294.878 212.606 300.358 210.226 305.348L206.286 313.518C205.066 316.337 204.063 319.246 203.286 322.218L207.036 331.218H207.126C207.746 321.418 212.376 312.278 218.016 304.208Z" fill="#2C2525"/>
<path id="Vector_189" d="M387.006 325.018C388.497 325.018 389.706 323.567 389.706 321.778C389.706 319.989 388.497 318.538 387.006 318.538C385.515 318.538 384.306 319.989 384.306 321.778C384.306 323.567 385.515 325.018 387.006 325.018Z" fill="#FBBEBE"/>
<g id="arm">
<path id="Vector_190" d="M271.356 165.118L270.356 166.118C270.356 166.118 315.746 237.118 325.796 244.668L328.886 242.168C328.886 242.168 317.286 220.868 271.356 165.118Z" fill="#A9684D"/>
<path id="Vector_191" d="M204.106 322.418L208.506 333.058C209.286 334.928 210.116 336.888 211.696 338.158C212.694 338.879 213.84 339.368 215.051 339.589C216.262 339.811 217.508 339.759 218.696 339.438C221.057 338.776 223.305 337.765 225.366 336.438C232.036 332.648 238.706 328.848 245.196 324.738C257.257 317.092 268.633 308.417 279.196 298.808C286.016 292.608 292.486 286.018 298.946 279.438L309.286 268.868C311.086 267.048 311.026 263.998 310.986 261.438C310.846 253.438 306.986 245.998 306.056 238.078C305.852 237.073 305.946 236.03 306.326 235.078C306.544 234.621 306.927 234.263 307.399 234.077C307.87 233.892 308.395 233.892 308.866 234.078C310.316 234.828 309.346 237.308 310.426 238.538C311.426 239.608 313.336 238.868 313.916 237.538C314.34 236.155 314.29 234.67 313.776 233.318L315.026 232.798C316.936 229.158 314.956 224.408 311.596 222.018C308.236 219.628 303.936 219.098 299.816 219.018V216.018C305.68 215.391 311.611 215.894 317.286 217.498C318.146 216.498 317.596 214.998 316.796 213.988C314.246 210.758 309.706 209.668 305.636 210.228C301.566 210.788 297.816 212.708 294.176 214.608L299.606 200.998C300.216 199.753 300.527 198.384 300.516 196.998C300.496 196.306 300.241 195.642 299.794 195.113C299.348 194.585 298.735 194.223 298.056 194.088L294.256 200.798C290.696 207.088 287.046 213.668 286.606 220.878C286.523 224.744 286.913 228.606 287.766 232.378C288.396 235.808 288.176 239.098 289.126 242.458C290.337 246.728 291.275 251.07 291.936 255.458C292.359 257.306 292.297 259.231 291.756 261.048C290.516 264.288 286.756 265.698 284.356 268.188C280.356 268.428 276.636 270.968 273.566 273.628C268.691 278.079 263.323 281.958 257.566 285.188C253.737 287.112 249.793 288.799 245.756 290.238C241.256 291.958 236.636 293.688 231.826 293.768C228.236 293.768 224.536 292.958 221.116 294.038C215.966 295.648 213.116 301.038 210.816 305.878L207.006 313.878C205.823 316.646 204.853 319.501 204.106 322.418V322.418Z" fill="#FBBEBE"/>
<path id="Vector_192" d="M331.546 244.778C331.546 244.778 329.156 240.458 328.236 241.318C327.316 242.178 324.356 244.178 324.746 244.808C325.136 245.438 327.746 248.898 327.746 248.898C327.746 248.898 331.166 248.798 332.216 245.818L331.546 244.778Z" fill="#464353"/>
<path id="Vector_193" opacity="0.9" d="M346.676 267.438L346.166 267.318C346.166 267.318 346.566 265.008 341.096 262.628C340.097 262.198 339.075 261.82 338.036 261.498C329.636 258.848 326.356 253.028 328.036 248.868C328.081 248.728 328.134 248.591 328.196 248.458L331.696 245.708L332.106 246.058C334.228 247.784 336.543 249.257 339.006 250.448C342.168 251.883 344.685 254.442 346.066 257.628C347.237 260.765 347.449 264.18 346.676 267.438V267.438Z" fill="#FDD8D8"/>
<path id="Vector_194" opacity="0.2" d="M331.426 246.448C331.426 246.448 332.616 249.048 338.876 252.118C345.136 255.188 346.466 264.118 346.466 264.118C346.466 264.118 343.206 255.848 338.196 254.328C333.186 252.808 330.966 246.918 330.966 246.918L331.426 246.448Z" stroke="#2F2E41" stroke-width="0.25" stroke-miterlimit="10"/>
<path id="Vector_195" opacity="0.2" d="M330.476 247.478C330.476 247.478 330.196 250.988 334.296 254.098C338.396 257.208 346.186 262.228 346.356 264.588C346.356 264.588 342.606 260.678 339.356 259.378C336.106 258.078 331.676 255.448 331.176 253.008C331.176 253.008 329.376 249.188 329.906 247.698L330.476 247.478Z" stroke="#2F2E41" stroke-width="0.25" stroke-miterlimit="10"/>
<path id="Vector_196" opacity="0.2" d="M329.216 248.258C329.216 248.258 327.536 251.628 331.636 256.338C333.619 258.168 335.997 259.516 338.586 260.278C341.47 261.285 344.027 263.054 345.986 265.398" stroke="#2F2E41" stroke-width="0.25" stroke-miterlimit="10"/>
<path id="Vector_197" opacity="0.9" d="M347.286 269.648L346.596 269.508C346.596 269.508 347.136 266.678 339.756 263.778C339.766 263.292 339.833 262.808 339.956 262.338C340.03 261.953 340.148 261.577 340.306 261.218C340.445 260.866 340.623 260.531 340.836 260.218C341.248 259.493 341.819 258.871 342.506 258.398C342.962 258.079 343.469 257.842 344.006 257.698C344.396 257.588 344.801 257.534 345.206 257.538C345.624 257.546 346.04 257.599 346.446 257.698C347.816 260.738 348.346 264.668 347.286 269.648Z" fill="#6C63FF"/>
</g>
</g>
</g>
</g>
<defs>
<linearGradient id="paint0_linear" x1="432.005" y1="9.99345" x2="460.005" y2="619.993" gradientUnits="userSpaceOnUse">
<stop offset="0.180188" stop-color="#BCBDB7"/>
<stop offset="1" stop-color="#82837C" stop-opacity="0"/>
</linearGradient>
<linearGradient id="paint1_linear" x1="424.48" y1="664.99" x2="449" y2="1015" gradientUnits="userSpaceOnUse">
<stop stop-color="#BCBDB7" stop-opacity="0.83"/>
<stop offset="1" stop-color="#82837C" stop-opacity="0"/>
</linearGradient>
<linearGradient id="paint2_linear" x1="84312.8" y1="89557.5" x2="84312.8" y2="47528.4" gradientUnits="userSpaceOnUse">
<stop stop-color="#808080" stop-opacity="0.25"/>
<stop offset="0.54" stop-color="#808080" stop-opacity="0.12"/>
<stop offset="1" stop-color="#808080" stop-opacity="0.1"/>
</linearGradient>
<radialGradient id="paint3_radial" cx="0" cy="0" r="1" gradientUnits="userSpaceOnUse" gradientTransform="translate(457.38 229.91) scale(10.14)">
<stop stop-color="white"/>
<stop offset="1"/>
</radialGradient>
<radialGradient id="paint4_radial" cx="0" cy="0" r="1" gradientUnits="userSpaceOnUse" gradientTransform="translate(-39300.1 5508.79) rotate(180) scale(215.472 195.421)">
<stop stop-color="white"/>
<stop offset="1"/>
</radialGradient>
<clipPath id="clip0">
<rect width="860.92" height="810.99" fill="white"/>
</clipPath>
</defs>
</svg>
